<?xml version="1.0" encoding="utf-8"?>
<!-- Generator: Adobe Illustrator 19.2.1, SVG Export Plug-In . SVG Version: 6.00 Build 0)  -->
<svg version="1.1" id="Layer_1" xmlns="http://www.w3.org/2000/svg" xmlns:xlink="http://www.w3.org/1999/xlink" x="0px" y="0px"
	 viewBox="0 0 512 512" style="enable-background:new 0 0 512 512;" xml:space="preserve">
<style type="text/css">
	.st0{fill:#FFFFFF;}
</style>
<g>
	<path class="st0" d="M410.1,347.5c-5.1,0-9.8-1.9-13.2-5.5c-3.6-3.6-5.6-8.3-5.6-13.3s2-9.7,5.5-13.2c1.7-1.7,16.6-16.7,32.3-32.3
		l8.4-8.4H211.5c-10.4,0-18.8-8.4-18.8-18.8c0-10.4,8.4-18.8,18.8-18.8h226.1l-40.6-40.6c-3.6-3.6-5.5-8.3-5.5-13.3s2-9.7,5.5-13.3
		c3.6-3.6,8.3-5.5,13.3-5.5c5,0,9.7,2,13.3,5.5l72.7,72.7c3.4,3.5,5.4,8.3,5.4,13.2c0,0.4,0,0.8,0,1l0,0.2l0,0.2
		c-0.2,2.6-1,5.2-2.1,7.5l0,0.1l-0.2,0.2c-0.9,1.4-2.4,3.1-4.3,5.2l-0.4,0.4l-0.1,0.1c-2.7,2.8-5.7,5.9-9.6,9.7L423.4,342
		C419.9,345.5,415.2,347.5,410.1,347.5z"/>
	<path class="st0" d="M211.5,457c-110.9,0-201.1-90.2-201.1-201S100.6,55,211.5,55c49.6,0,97.2,18.2,133.9,51.2
		c3.7,3.3,5.9,7.9,6.2,13c0.3,5-1.4,9.8-4.7,13.5c-3.6,4-8.7,6.3-14,6.3c-4.6,0-9-1.7-12.4-4.8c-30-26.9-68.7-41.7-109-41.7
		C121.3,92.6,48,165.9,48,256c0,90.1,73.4,163.4,163.5,163.4c40.2,0,78.9-14.8,108.9-41.6c3.4-3.1,7.8-4.8,12.4-4.8
		c5.3,0,10.5,2.3,14,6.2c6.8,7.7,6.2,19.6-1.5,26.5C308.6,438.8,261,457,211.5,457z"/>
</g>
</svg>
