<svg version="1.1"  xmlns="http://www.w3.org/2000/svg" xmlns:xlink="http://www.w3.org/1999/xlink" x="0px" y="0px" viewBox="0 0 1024 1024" style="enable-background:new 0 0 1024 1024;" xml:space="preserve">
	<path d="M346,288l-1.6-0.7c7.5-15.9,9.2-34.1,5-51.2s-14.2-32.4-28.2-43c-0.6-0.5-1.1-0.8-1.7-1c-0.8-0.3-1.5-0.2-2.3,0.2
		c-2,1-3.5,4.2-4.2,6.7c-2.4,8.4-5.5,16.6-9.2,24.1c-6.5,13.5-15.2,25.9-25.6,36.7l-1.3-1.2c10.3-10.7,18.8-22.9,25.3-36.2
		c3.6-7.5,6.7-15.5,9.1-23.9c0.4-1.4,2-6.2,5.1-7.8c1.2-0.6,2.4-0.7,3.6-0.3c0.8,0.3,1.5,0.8,2.2,1.3c14.3,10.9,24.6,26.5,28.9,44
		C355.4,253.1,353.6,271.7,346,288z"/>
	<path d="M180.4,298.1c-6.5-3.1-9.4-10.1-10.5-14c-1.1-3.6-1.6-7.3-2.1-10.8c-0.3-2.1-0.6-4.2-1-6.3c-2.1-10.6-6.9-20.6-11.5-30.4
		c-5.3-11-10.8-22.4-12.3-34.8l-0.1-0.9l0.9-0.1c5.2-0.7,9.9,2.8,13.6,5.7c23.9,18.1,50.6,31.6,79.3,40.2l-0.5,1.7
		c-28.9-8.7-55.8-22.3-79.9-40.5c-3.3-2.5-7.3-5.5-11.5-5.4c1.6,11.7,6.9,22.7,12,33.3c4.7,9.8,9.6,20,11.7,30.8
		c0.4,2.1,0.7,4.3,1,6.4c0.5,3.5,1,7.2,2,10.6c1.1,3.6,3.7,10.1,9.6,12.9L180.4,298.1z"/>
	<path d="M206.9,271.9c-6.3-12-13.6-23.6-21.7-34.4c-3-4-7.1-8.5-12.1-8l-0.2-1.7c5.8-0.5,10.3,4.4,13.6,8.7
		c8.2,10.9,15.6,22.5,21.9,34.6L206.9,271.9z"/>
	<path d="M234.7,453.2c-4.5,0-8.8-0.9-12.1-3.3c-1.7-1.2-3.4-2.2-5-3.2c-4.5-2.8-8.4-5.2-9.8-9.4l1.6-0.5c1.2,3.5,4.7,5.7,9.1,8.4
		c1.6,1,3.3,2.1,5.1,3.3c8,5.6,22.2,1.9,29.9-0.9c9.2-3.2,17-9.3,24.5-15.2l1.1,1.4c-7.7,6-15.6,12.1-25,15.4
		C248.2,451.3,241.2,453.2,234.7,453.2z"/>
	<path d="M195,402.3c-0.5-5.3,2.1-10.9,4.5-16.3c1.3-2.8,2.5-5.4,3.2-7.9c5.2-17.1,4.8-29.8-0.9-36.7c-4.3-5.2-11.7-7.2-22.1-6.1
		l-0.2-1.7c11-1.2,18.9,1,23.6,6.7c6.2,7.4,6.6,20.7,1.3,38.4c-0.8,2.6-2,5.3-3.3,8.1c-2.4,5.2-4.8,10.5-4.4,15.4L195,402.3z"/>
	<path d="M204.2,369.9c-0.8-0.3-1.8-0.6-3-0.9c-5.8-1.5-15.5-4.1-19.5-15.1c-2-5.5-1.5-13.2,1.2-19.7l1.6,0.7
		c-2.5,6.1-3,13.4-1.1,18.5c3.7,10.2,12.5,12.5,18.3,14c1.2,0.3,2.3,0.6,3.2,0.9L204.2,369.9z"/>
	<path d="M243.2,375.6l-1.7-0.5c0.4-1.4,0.7-3.5,1-5.9c1.4-11.1,3.8-29.6,24.4-30.9c5.9-0.4,13.9,1.9,19.4,3.7l-0.5,1.7
		c-5.3-1.7-13.1-4-18.7-3.7c-19.2,1.3-21.4,18.9-22.8,29.4C244,371.9,243.7,374.1,243.2,375.6z"/>
	<path d="M258.3,365.3l-0.3-0.4c-4.2-6.1-4.1-14.9,0.2-20.9l1.2,0.9l0.5-0.1c0.5,2.8,0.5,5.6,0.5,8.2c0,2.5,0,5.2,0.5,7.9
		c0.2,1.1,0.1,2.6-0.6,3.6c-0.4,0.5-0.9,0.8-1.5,0.8L258.3,365.3z M258.5,346.9c-2.6,5-2.4,11.5,0.6,16.3c0.2-0.4,0.3-1.3,0.2-2.1
		c-0.5-2.8-0.5-5.6-0.5-8.2C258.7,351,258.7,349,258.5,346.9z"/>
	<path d="M192.7,359.6l-0.3-0.4c-4.6-6.6-4.5-16.2,0.2-22.8l1.3,0.9l0.4-0.1c0.5,3.1,0.5,6.1,0.5,9c0,2.8,0,5.7,0.5,8.7
		c0.2,1.2,0.2,2.9-0.6,3.8c-0.4,0.5-1,0.8-1.6,0.9L192.7,359.6z M192.9,339.3c-3,5.6-2.9,12.9,0.6,18.3c0.3-0.4,0.4-1.5,0.3-2.4
		c-0.5-3.1-0.5-6.1-0.5-9C193.2,343.9,193.2,341.6,192.9,339.3z"/>
	<path d="M305.2,440.2l-0.8-1.5c33.2-16.9,69.4-50,71.1-92.6c1.6-37.6-12.4-59.5-20.8-69.2l-0.3-0.3l1.3-1.1l0.3,0.3
		c8.6,9.9,22.9,32.3,21.2,70.5C375.5,389.5,338.8,423.2,305.2,440.2z"/>
	<path d="M277.3,588.2l-1.7-0.1c0.9-10.9-4.9-20.2-11-30.1c-3.4-5.6-7-11.4-9.3-17.6c-5.2-14.1-3.7-31.1,4.3-46.4
		c6.5-12.5,17.3-24.2,32-34.7l1,1.4c-14.5,10.3-25.1,21.8-31.4,34.1c-7.7,14.9-9.2,31.3-4.2,45c2.2,6,5.7,11.7,9.1,17.2
		C272.1,566.7,278.2,576.8,277.3,588.2z"/>
	<path d="M240.1,601c-1.9-19.3-8.4-38.2-18.9-54.6c-1.8-2.8-3.8-5.7-5.7-8.4c-4.7-6.7-9.5-13.6-12.5-21.3c-7.8-20-2.4-45.1,13.5-64
		l1.3,1.1c-15.6,18.4-20.8,42.8-13.3,62.2c2.9,7.5,7.7,14.4,12.3,21c1.9,2.7,3.9,5.6,5.7,8.5c10.6,16.6,17.2,35.7,19.1,55.4
		L240.1,601z"/>
	<path d="M40.5,646.8c-3.5-1.5-6-4.7-7.1-8.8c-1.3-5.1-0.3-10.7,2.7-14.7c4.7-6.3,13.5-9.9,23.9-9.7c5.3,0.1,10.6,1,15.8,1.9
		c3.3,0.6,6.7,1.2,10,1.5c25.6,2.8,50.7-7.3,72.2-17c2.2-1,4.5-2,6.8-3.1c20.6-9.4,42-19.1,64.8-20.8l0.1,1.7
		c-22.5,1.7-43.7,11.3-64.2,20.7c-2.3,1-4.5,2.1-6.8,3.1c-21.7,9.8-47.1,20-73.1,17.2c-3.4-0.4-6.8-1-10.1-1.6
		c-5.1-0.9-10.3-1.8-15.5-1.9c-9.8-0.2-18,3.1-22.4,9c-2.7,3.6-3.6,8.6-2.4,13.2c1,3.6,3.1,6.4,6.1,7.7L40.5,646.8z"/>
	<path d="M28.2,651.9c-9-4.5-13.8-16.5-10.7-26.8c2.8-9.5,11.6-17.2,22.2-19.6c9.4-2.1,19.9-0.3,29.7,5l-0.8,1.5
		c-9.4-5.1-19.5-6.9-28.5-4.9c-10.1,2.2-18.3,9.5-20.9,18.4c-2.8,9.5,1.6,20.6,9.9,24.7L28.2,651.9z"/>
	<path d="M4.5,686.4c-6.6-6.2-5.3-17.4,0.1-23.9c6-7.2,15.5-10.2,22.2-11.8c15.3-3.6,31.2-4.2,46.7-4.6c3.9-0.1,7.7-0.2,11.6-0.4
		c37.6-1.7,75.3-8,111.8-14.1c11.6-1.9,23.7-4,35.2-7.3c13.3-3.8,26-9.4,37.8-16.5c7.4-4.5,17.9-11.6,23.4-22.2
		c4.1-8.1,5.2-17.7,6-26.2l3.6-34.3l1.7,0.2l-3.6,34.3c-0.9,8.6-1.9,18.4-6.2,26.8c-5.6,11-16.4,18.3-24,22.9
		c-12,7.2-24.8,12.8-38.3,16.7c-11.6,3.3-23.7,5.4-35.4,7.3c-36.5,6.1-74.3,12.4-112,14.1c-3.9,0.2-7.7,0.3-11.6,0.4
		c-15.4,0.5-31.2,1-46.3,4.6c-6.5,1.5-15.7,4.4-21.3,11.2c-4.9,6-6.2,16.1-0.3,21.6L4.5,686.4z"/>
	<path d="M20.6,699.4c-3.2,0-6.2-0.8-8.4-3.1c-2.7-2.9-3.1-7.1-3.2-11.2c-0.2-5.2-0.1-10.1,2.7-14c2.2-3.1,5.6-4.8,8.6-6.4
		c3.5-1.8,7.4-3.8,11.7-4l0.1,1.7c-3.9,0.1-7.6,2.1-10.9,3.8c-2.8,1.5-6,3.1-7.9,5.8c-2.5,3.5-2.5,8.1-2.4,13
		c0.1,3.9,0.4,7.6,2.7,10c3.3,3.4,9,2.7,14.2,1.6l0.4,1.7C25.6,698.9,23,699.4,20.6,699.4z"/>
	<path d="M62.2,711.3c-9.3,0-21.1-3.5-26.2-13.7c-2.7-5.3-2.2-12.3,1.2-17.9c2.8-4.5,7.1-7.1,11.7-7.1v1.7c-4,0-7.8,2.3-10.2,6.3
		c-3,5-3.5,11.5-1.1,16.2c4.8,9.4,16.7,13.1,26.4,12.7c8.4-0.4,16.6-3.3,24.5-6c2-0.7,4-1.4,6.1-2.1c32.3-10.6,67-11.7,99.7-11.5
		c13,0.1,26.3,0.4,39.2,0.8c62.1,1.6,126.3,3.2,184.5-18.8c3.3-1.3,7-2.9,8.5-6c2-4.2-0.5-9.1-2.8-13.5l-0.4-0.7
		c-5.3-10.3-7.8-21.9-7.3-33.5c0.9-20.4,10.8-39,20.5-57.1c9.9-18.6,20.2-37.8,20.2-58.6h1.7c0,21.3-10.4,40.7-20.4,59.4
		c-9.5,17.8-19.4,36.3-20.3,56.3c-0.5,11.3,2,22.6,7.1,32.7l0.4,0.7c2.4,4.7,5.2,10.1,2.8,15.1c-1.8,3.7-5.8,5.5-9.5,6.9
		c-58.6,22.1-122.9,20.5-185.2,19c-12.9-0.3-26.2-0.7-39.1-0.8c-32.6-0.3-67.1,0.9-99.2,11.4c-2,0.7-4,1.4-6,2
		c-8,2.8-16.3,5.7-25,6.1C63.4,711.3,62.8,711.3,62.2,711.3z"/>
	<path d="M544.1,687.2c-15.7-10.4-25.2-30-28.1-58.3c-2.4-23.5-0.7-45.4,5.1-65.2c6.5-22.3,18.2-41.5,33.9-55.6
		c1.6-1.5,3.4-2.9,5.6-3.4l0.4,1.7c-1.8,0.4-3.4,1.7-4.8,3c-15.4,13.9-26.9,32.9-33.4,54.8c-5.7,19.5-7.4,41.3-5,64.5
		c2.9,27.8,12.1,46.9,27.3,57L544.1,687.2z"/>
	<path d="M338.3,719.7c-2.7,0-5.5-0.5-8.1-1.6c-5.1-2.1-9.2-6-11.1-10.7c-0.4-1-0.8-2.3-0.7-3.7c0.3-2.7,2.8-4.8,7.2-6
		c20.5-5.5,41.9-1.4,62.7,2.4c4.8,0.9,9.9,1.8,14.8,2.6c13.7,2.2,27.6,3.4,38.2,4.2c26.8,2,54,2.9,80.8,2.8c6,0,11.3-0.3,15.7-2.9
		c4.4-2.6,7.1-7.1,9.9-11.8c1-1.7,2.1-3.5,3.3-5.2c6.7-9.7,17.7-16.5,29.4-18.2l0.3,1.7c-11.2,1.6-21.8,8.2-28.2,17.5
		c-1.1,1.6-2.2,3.4-3.2,5.1c-2.8,4.7-5.7,9.6-10.5,12.4c-4.8,2.8-10.3,3.1-16.5,3.1c-26.9,0.2-54.2-0.8-81-2.8
		c-10.6-0.8-24.6-2-38.3-4.2c-4.9-0.8-9.9-1.7-14.8-2.6c-20.6-3.8-41.8-7.8-61.9-2.5c-2.5,0.7-5.6,2-5.9,4.5c-0.1,1,0.2,2,0.6,2.8
		c1.7,4.3,5.5,7.9,10.2,9.8c4.7,1.9,9.9,2,14.1,0.2l0.7,1.6C343.3,719.2,340.8,719.7,338.3,719.7z"/>
	<path d="M308.3,737.1c-1.2,0-2.4-0.2-3.5-0.7c-2.7-1-5-3-7-4.7c-0.8-0.7-1.8-1.6-2.3-2.8c-0.4-1-0.3-2-0.3-3
		c0.2-2.5,0.5-5.2,1.4-7.8c2.3-6.6,9.1-11.5,16.1-11.7l0,1.7c-6.3,0.1-12.4,4.5-14.5,10.5c-0.8,2.4-1.1,4.9-1.3,7.3
		c-0.1,0.9-0.1,1.6,0.2,2.3c0.3,0.8,1.1,1.5,1.8,2.1c2,1.7,4,3.5,6.4,4.4c2.5,0.9,5.2,0.6,6.8-0.8l1.2,1.3
		C312.1,736.5,310.3,737.1,308.3,737.1z"/>
	<path d="M313.7,757.8c-2.4,0-4.7-0.3-7-0.8c-3.4-0.8-5.9-2-7.8-3.8c-4.1-3.8-4.9-10.7-1.8-15.3l1.5,1c-2.6,4-1.9,9.8,1.6,13.1
		c1.7,1.6,4,2.7,7,3.4c4.9,1.1,10,1,14.8-0.4l0.5,1.7C319.6,757.3,316.6,757.8,313.7,757.8z"/>
	<path d="M349,770.8c-6.4,0-12.9-1.6-18.4-4.8c-0.8-0.5-1.7-1-2.2-2c-0.3-0.6-0.4-1.4-0.2-2.1c0.2-0.6,0.6-1,1.1-1.3l0.8,1.6
		c-0.1,0-0.1,0.1-0.2,0.2c-0.1,0.2,0,0.5,0.1,0.7c0.3,0.5,0.9,0.9,1.5,1.2c9.3,5.3,21.3,6,31.1,1.9l0.7,1.6
		C358.8,769.9,353.9,770.8,349,770.8z"/>
	<path d="M365.5,758.1c-3.4,0-6.8-1.4-9.3-3.1c-5.6-3.8-10-11.4-7-17.9c1.5-3.2,4.4-5.4,6.7-6.9c5.7-3.6,12.2-6,18.8-7l0.2,1.7
		c-6.4,0.9-12.7,3.2-18.1,6.7c-2.2,1.4-4.8,3.3-6.1,6.1c-2.6,5.7,1.4,12.3,6.4,15.8c3.4,2.3,8.5,4,12.6,1.8l0.8,1.5
		C369,757.7,367.2,758.1,365.5,758.1z"/>
	<path d="M339.8,722.7c-5.4,0-10.9-2.3-14.3-6.6l1.4-1.1c4.8,6,14.2,7.8,20.9,3.9l0.9,1.5C345.9,722,342.9,722.7,339.8,722.7z"/>
	<path d="M313.8,736.1c-1.3,0-2.6-0.3-3.8-1l0.9-1.5c2.8,1.7,6.5,0.4,8.7-1.5c2.6-2.2,4.1-5.5,5.5-8.4l1.6,0.8c-1.5,3.1-3.1,6.5-6,9
		C318.9,735,316.3,736.1,313.8,736.1z"/>
	<path d="M322,760.8l-1.1-1.4c4.1-3.1,8.7-7.4,8.3-12.8c-0.1-1.9-1.3-4.2-3.2-4.5l0.3-1.7c2.8,0.5,4.5,3.5,4.7,6.1
		C331.4,752.8,326.1,757.7,322,760.8z"/>
	<path d="M376.6,770.2c-0.9,0-1.9-0.1-2.8-0.3c-5.9-1.1-10.3-6.1-13.5-9.7l1.3-1.2c4,4.4,7.6,8.2,12.5,9.1c4.5,0.9,9-0.9,13.4-2.6
		c1.1-0.4,2.1-0.8,3.2-1.2c8.7-3.1,17.8-3.8,27.2-4.3c43.3-2.3,87-0.6,130,5l-0.2,1.7c-42.9-5.6-86.5-7.3-129.7-5
		c-9.3,0.5-18.3,1.2-26.7,4.2c-1,0.4-2.1,0.8-3.1,1.2C384.4,768.7,380.6,770.2,376.6,770.2z"/>
	<path d="M738.8,744c-5.9-2-10.4-6.2-14.9-10.4c-1.2-1.2-2.5-2.3-3.8-3.4c-5.2-4.5-11.1-8.3-16.8-12l-58.3-37.7
		c-9.5-6.1-19.3-12.5-27.3-20.9c-9-9.4-14.3-20.3-14.9-30.8c-1-15.7,8.2-32.2,24.5-44.3c9.7-7.2,20.8-12.3,31.5-17.4
		c4.8-2.2,9.7-4.5,14.4-7c17.4-9,33.3-20.4,47.3-33.9l1.2,1.2c-14.2,13.7-30.2,25.2-47.7,34.2c-4.8,2.5-9.7,4.8-14.5,7
		c-10.7,5-21.7,10.1-31.2,17.2c-15.9,11.7-24.8,27.7-23.8,42.8c0.6,10.1,5.8,20.6,14.4,29.7c7.9,8.2,17.6,14.5,27,20.6l58.3,37.7
		c5.8,3.7,11.7,7.6,17,12.2c1.3,1.1,2.5,2.3,3.8,3.5c4.3,4,8.7,8.2,14.2,10L738.8,744z"/>
	<path d="M569.8,773.7l-1.6-0.7c6.6-15.5,22.7-27.4,43.1-31.8c17.6-3.8,35.9-2.1,53.6-0.5l1.2,0.1c19.7,1.8,37.4,3,54.3-1.4l0.4,1.7
		c-17.2,4.4-35,3.3-54.8,1.5l-1.2-0.1c-17.6-1.6-35.8-3.3-53.1,0.4C591.8,747.1,576.2,758.7,569.8,773.7z"/>
	<path d="M572.7,835.4c-3.8,0-7.7-0.1-11.5-0.2c-10.1-0.3-21.2-1.8-27.2-9.9c-6-8.2-3.6-19.8,1.8-27c5.9-7.9,14.9-12.5,23-15.9
		c39.2-16.8,82.7-19.5,124.7-22.2c19.6-1.2,39.9-2.5,59.5-5.2c53.9-7.4,105.9-25.8,156.3-43.6c6.7-2.4,15-5.3,20.1-11.5
		c3.5-4.3,5.3-9.9,6.9-14.9c2.7-8.5,2.1-12.7,1.5-17.1c-0.6-4.4-1.3-9,1.6-17.9l1.7,0.5c-2.7,8.5-2.1,12.7-1.5,17.1
		c0.6,4.4,1.3,9-1.6,17.9c-1.6,5.1-3.5,10.9-7.2,15.5c-5.4,6.5-14,9.5-20.9,12c-50.4,17.9-102.6,36.3-156.7,43.7
		c-19.7,2.7-40,4-59.7,5.2c-41.9,2.6-85.3,5.4-124.1,22c-7.9,3.4-16.7,7.8-22.3,15.4c-5,6.7-7.3,17.5-1.8,24.9
		c5.6,7.6,16.2,8.9,25.9,9.2c38.8,1.2,77.9-4.1,115.8-9.3c14.8-2,30.1-4.1,45.2-5.8c19.1-2.1,38.7-3.7,57.6-5.2
		c54.9-4.3,111.6-8.8,163.9-27.8c11.3-4.1,25.9-10.1,38.2-19.9c17.4-13.8,30.1-35.2,35.8-60.4c3-13.1-5.5-27.3-13.6-41
		c-6.1-10.3-12.4-21-14-31.2l1.7-0.3c1.5,9.9,7.7,20.4,13.8,30.6c8.3,14,16.9,28.5,13.8,42.3c-5.8,25.5-18.7,47.3-36.4,61.3
		c-12.5,9.9-27.3,16-38.7,20.2c-52.5,19.1-109.4,23.6-164.4,27.9c-18.9,1.5-38.5,3-57.6,5.1c-15.1,1.7-30.4,3.8-45.2,5.8
		C643.1,830.5,607.8,835.4,572.7,835.4z"/>
	<path d="M979.3,622.6c-20.7-30.7-44-57.8-69.4-80.7c-64.6-58.1-147.8-93.4-234.5-99.2c-18.3-1.2-37-1.2-55.1-1.1
		c-16.1,0.1-32.8,0.1-49.2-0.8c-42.5-2.2-74.4-10.6-100.3-26.3l0.9-1.5c25.7,15.5,57.3,23.8,99.5,26c16.3,0.9,33,0.8,49.1,0.8
		c18.1-0.1,36.8-0.1,55.2,1.1c87.1,5.9,170.7,41.3,235.6,99.7c25.5,23,49,50.3,69.7,81.1L979.3,622.6z"/>
	<path d="M438.9,543.2l-1.6-0.6c15.7-45.9,10.2-97.4-14.4-134.3c-3.2-4.9-6.9-9.6-10.4-14.1c-2.1-2.8-4.4-5.7-6.5-8.6
		c-10.8-14.8-19.7-30.9-26.5-48l1.6-0.6c6.7,16.9,15.6,32.9,26.3,47.6c2.1,2.9,4.3,5.8,6.5,8.6c3.5,4.6,7.2,9.3,10.4,14.2
		C449.1,444.7,454.7,496.7,438.9,543.2z"/>
	<path d="M510.8,499.1c-1.5-12.8-3-26-6.8-38.5c-4.2-14-10.7-25.2-19.2-33.3c-7-6.6-15.8-11.4-24.3-16l-3-1.6
		c-19.1-10.5-33.9-20.3-46.3-30.9l1.1-1.3c12.4,10.6,27,20.3,46,30.7l3,1.6c8.6,4.6,17.4,9.4,24.7,16.2c8.8,8.3,15.4,19.7,19.7,34
		c3.8,12.7,5.4,26,6.9,38.8L510.8,499.1z"/>
	<path d="M181.1,383c-2.3-0.7-3.7-2.9-4.8-4.9c-12.7-24.9-8.8-58.4,9.8-83.4c16.1-21.7,42.4-37.5,73.9-44.4c1.2-0.3,2-0.1,2.5,0.6
		c0.3,0.4,0.3,1,0,1.4c-0.3,0.4-0.8,0.8-1.4,0.7c-0.4-0.1-0.8-0.4-0.9-0.8l1.7-0.5c-0.1-0.2-0.2-0.4-0.5-0.4c-0.1,0-0.3,0-0.3,0.1
		c-0.1,0.1-0.1,0.3,0,0.5c0,0,0,0-0.1,0c-0.1,0-0.3,0-0.6,0.1c-31.1,6.9-57,22.4-72.9,43.8c-18.2,24.5-22,57.2-9.6,81.5
		c0.9,1.7,2,3.5,3.7,4L181.1,383z"/>
	<path d="M245.6,373.3l-1.2-1.3c2.7-2.6,6.2-4.3,9.9-4.9c2-0.3,4-0.3,6-0.3c1.7,0,3.4,0,5-0.2c5.9-0.7,10.9-4.3,12.8-9.1
		c0.7-1.7,0.9-3.5,1.3-5.4c0.4-2.4,0.8-4.8,1.9-7.1l1.5,0.8c-1,2-1.4,4.2-1.8,6.5c-0.3,1.9-0.6,3.9-1.3,5.8
		c-2.1,5.4-7.7,9.4-14.2,10.2c-1.8,0.2-3.5,0.2-5.2,0.2c-2,0-3.8,0-5.7,0.3C251.3,369.3,248.1,370.9,245.6,373.3z"/>
	<path d="M206.3,437.3c-0.1,0-0.3,0-0.4,0c-12.4-0.3-23.7-10.6-25.1-23c-0.5-4.1,0.1-8.2,0.6-11.7c0.6-4.2,1.5-9,4.5-12.5
		c1.1-1.3,2.4-2.4,3.7-3.5c2.2-1.8,4.2-3.5,4.9-5.9l1.7,0.5c-0.9,2.9-3.2,4.9-5.5,6.7c-1.2,1-2.5,2.1-3.5,3.2
		c-2.7,3.2-3.5,7.5-4.1,11.7c-0.5,3.4-1,7.4-0.6,11.2c1.3,11.5,11.8,21.1,23.4,21.4c0.5,0,1.1,0,1.5-0.2c1-0.4,1.4-1.8,1.5-2.9
		c1.4-10.3-6-19.3-10.6-23.7l-0.2-0.2c-1-1-2-2-2.6-3.3c-0.7-1.5-0.6-3.7,0.9-4.8c1-0.8,2.3-0.9,3.3-0.9l8.3-0.4l0.1,1.7l-8.3,0.4
		c-0.9,0-1.7,0.1-2.3,0.5c-0.8,0.6-0.8,1.9-0.4,2.8c0.4,1,1.3,1.9,2.2,2.7l0.2,0.2c4.8,4.7,12.7,14.1,11.1,25.2
		c-0.3,2.2-1.2,3.7-2.5,4.3C207.5,437.2,206.9,437.3,206.3,437.3z"/>
	<path d="M233.3,439.5c-2.7,0-5.3-0.1-8-0.4c-3-0.3-6.4-0.8-9.3-2.5c-3.2-1.9-5.3-5-5.4-8.1c-0.1-4,2.6-7.3,5.4-10.2l8.7-9.2
		l1.3,1.2l-8.7,9.2c-2.6,2.7-5,5.7-4.9,9c0.1,2.6,1.8,5.1,4.6,6.7c2.6,1.5,5.7,2,8.6,2.3c15.4,1.6,31.4-1.6,45.1-9.1
		c5.2-2.8,7.8-5.7,8.3-9.1l1.7,0.2c-0.7,5.2-5.6,8.4-9.2,10.4C259.8,436.1,246.5,439.5,233.3,439.5z"/>
	<path d="M310.2,281.3l-0.3-0.7c-1.8-4.7-6.7-7.3-10.7-8.2c-4.8-1-9.8-0.5-14.6,0.1l-0.2-1.7c4.7-0.5,10.1-1.2,15.1-0.1
		c5.4,1.2,9.8,4.4,11.7,8.5c12.6-3.8,19.2-18,20.1-29.8c0.8-10.3-1.5-20.6-3.7-30.6c-0.6-2.9-1.3-5.8-1.8-8.6l1.7-0.3
		c0.6,2.9,1.2,5.7,1.8,8.6c2.2,10.1,4.5,20.6,3.8,31.1c-0.9,12.6-8.3,27.8-22.1,31.5L310.2,281.3z"/>
	<path d="M273.2,466.1l-0.8-1.6c30.9-14.8,65.9-33.2,89.8-62.7c3.8-4.7,7.9-10.4,9.5-17.1l1.7,0.4c-1.7,7-5.9,12.9-9.8,17.8
		C339.5,432.8,304.3,451.2,273.2,466.1z"/>
	<path d="M240.7,484.1l-1.3-1.1c17-20.5,39.3-35.9,60.9-50.8c13.5-9.4,27.6-19,40.1-29.9c7.2-6.2,14.7-13.8,16.3-23.3l1.7,0.3
		c-1.7,10.1-9.5,18-16.9,24.4c-12.7,10.9-26.7,20.6-40.3,30C279.8,448.4,257.6,463.8,240.7,484.1z"/>
	<path d="M372,352l-1.7-0.2c2.2-21.9-2.1-44.7-12-64.4l1.5-0.8C369.9,306.6,374.2,329.8,372,352z"/>
	<path d="M231.9,340.4l-1.7-0.2c1.4-15.7,7.3-32.2,17.4-49c4.6-7.7,10.3-15.6,17.7-25.1c1-1.3,2.1-2.8,3.2-4.3
		c4.1-5.7,8.7-12.1,15-14l0.5,1.7c-5.8,1.8-10.2,7.9-14.1,13.4c-1.1,1.6-2.2,3-3.2,4.4c-7.4,9.4-13,17.3-17.6,24.9
		C239.1,308.7,233.3,325,231.9,340.4z"/>
	<path d="M217.7,284.6l-1.1-1.3c17.4-14.2,36.9-25.7,57.7-34l0.6,1.6C254.3,259.2,235,270.5,217.7,284.6z"/>
	<path d="M168.2,344.3l-1.7,0c0-7.9,2.6-15.6,5.2-22.8c2.9-8.1,6.1-16.3,9.5-24.3c3.5-8.1,7.8-17.1,16-21.4l0.8,1.5
		c-7.7,4-11.9,12.7-15.2,20.5c-3.4,7.9-6.6,16.1-9.5,24.2C170.7,329.2,168.3,336.7,168.2,344.3z"/>
	<path d="M183.4,417.9c-0.1-9.4,0.2-19,1-28.4c0.3-3.7,0.8-7.5,3.2-10.4l1.3,1.1c-2.1,2.5-2.5,5.9-2.8,9.4c-0.8,9.4-1.2,18.9-1,28.3
		L183.4,417.9z"/>
	<path d="M239.1,444.9c-7,0-13.7-0.8-20.2-2.5l0.4-1.7c19.1,4.9,41.3,2.3,62.5-7.4c16.8-7.7,32.9-19.2,52.1-37.4l1.2,1.3
		c-19.3,18.3-35.6,30-52.6,37.7C268.1,441.6,253.2,444.9,239.1,444.9z"/>
	<path d="M283.9,593.1c-8.8-20.8-17.9-42.3-21.3-65.1c-1.5-10.1-1.3-23.6,7.8-30.6l1.1,1.4c-8.5,6.5-8.5,19.3-7.1,29
		c3.3,22.6,12.4,44,21.2,64.7L283.9,593.1z"/>
	<path d="M90,620.7l-0.3-1.7c34.1-5.9,69.3-11.9,101.1-27.1c1.9-0.9,3.8-1.8,5.7-2.8c7.9-4,16.1-8.1,25-9.6
		c10.5-1.8,21.6,0.1,31.3,1.7l-0.3,1.7c-10.1-1.7-20.5-3.5-30.7-1.7c-8.6,1.5-16.7,5.5-24.5,9.4c-1.9,0.9-3.8,1.9-5.7,2.8
		C159.5,608.7,124.2,614.8,90,620.7z"/>
	<path d="M9.6,646.5l-1.5-0.8c4.5-8.6,9.6-16.9,15.4-24.7c3.2-4.2,7-9,12.3-11.5c5.1-2.4,10.9-2.5,16.5-2.3
		c11.7,0.5,23.4,2.2,34.7,3.8l-0.3,1.7c-11.3-1.6-22.9-3.3-34.5-3.8c-5-0.2-10.7-0.2-15.7,2.1c-5,2.4-8.7,6.9-11.7,11
		C19.2,629.8,14,638,9.6,646.5z"/>
	<path d="M56.4,712.2c-2,0-4.1,0-6.1-0.1c-9.6-0.5-32.9-3.4-41.4-21c-0.2-0.5-0.4-0.9-0.6-1.4l-1.4-0.2c0.1-0.8,0.3-1.6,0.5-2.4
		c-0.3-1.1-0.5-2.1-0.6-3.2c-0.7-8,4.6-14.6,7.7-17.9c7.8-8,18.7-12.6,29.9-12.6c0.1,0,0.1,0,0.2,0l0,1.7c0,0-0.1,0-0.1,0
		c-10.6,0-21.3,4.5-28.7,12.1c-3,3-7.8,9.2-7.3,16.4c2-4.9,5.6-9.5,10.4-13.3c6.1-4.9,13.3-8,20.1-10.6c9.1-3.5,21.1-7.4,33.6-7.7
		c12.8-0.2,24.4,3.7,32.4,10.9c7.2,6.4,10.7,15.3,9.3,23.1c-1.1,5.9-5.1,11.6-11,15.6c-5.8,3.9-12.5,5.8-17.8,7.1
		C76,711.1,66.2,712.2,56.4,712.2z M9.2,687c0.3,1.1,0.7,2.2,1.3,3.3c8.1,16.7,30.6,19.6,39.9,20c11.7,0.6,23.4-0.5,34.8-3.2
		c5.1-1.2,11.7-3.1,17.2-6.8c5.5-3.7,9.2-9,10.2-14.5c1.6-8.7-3.5-16.8-8.7-21.5c-7.7-7-18.8-10.6-31.2-10.5
		c-12.3,0.2-24.1,4.1-33,7.5c-6.7,2.6-13.7,5.6-19.6,10.3C14.5,676,10.8,681.4,9.2,687z"/>
	<path d="M158.8,692.6l-0.4-1.7c41.5-10.8,85.2-8.9,127.4-7c24.8,1.1,50.5,2.2,75.5,0.8c19.2-1.1,43.7-4.2,62.4-17.9
		c2.6-1.9,5.5-4.3,7-7.6c2.8-6.1,0.3-13.2-2.5-19.9c-2.9-7-5.9-14.3-11-20.1c-6.8-7.7-16.6-11.9-25.3-15.1
		c-21.3-7.7-53.4-14.8-84.7-4.9c-9.7,3.1-16.6,7.2-21.1,12.7c-5.6,6.9-6.9,16.2-3.1,22.7c3.7,6.4,11.5,9.4,18.5,11.6
		c14,4.2,28.5,6.8,43.1,7.7l-0.1,1.7c-14.7-0.9-29.4-3.5-43.5-7.7c-7.4-2.2-15.5-5.4-19.5-12.4c-4.1-7.1-2.8-17.3,3.3-24.7
		c4.7-5.7,11.9-10,21.9-13.2c31.8-10.1,64.2-2.9,85.8,4.9c8.9,3.2,19,7.6,26,15.6c5.3,6,8.4,13.4,11.3,20.6
		c2.9,7.1,5.6,14.6,2.4,21.3c-1.7,3.7-5,6.4-7.6,8.3c-19.1,14-43.9,17.1-63.4,18.2c-25.1,1.5-50.8,0.3-75.7-0.7
		C243.6,683.8,200.1,681.9,158.8,692.6z"/>
	<path d="M734.5,726.6c-7.1,0-14.4-0.1-21.9-0.4c-27.3-0.9-59.1-3.4-88.1-14.9c-31.2-12.4-55.4-34-68.1-60.8
		c-9.4-19.7-12.7-42.6-9.4-64.6c0.6-4.1,1.5-8.1,2.5-12.1c1.4-10,5.3-20.2,11.4-29.3c2-3,4.2-5.8,6.7-8.7
		c15.9-22.4,39.6-40.4,67.7-50.2c18.7-6.5,38.2-9.3,57.5-9.9c22.1-3.7,45.5-4.9,69.7-3.7c56.5,2.8,104,18.4,141.1,46.1
		c19.3,14.4,33.6,30.8,42.3,48.7c10.6,21.6,13,45.6,6.7,65.9c-7,22.6-25,42-53.4,57.9C855.4,715,802.6,726.6,734.5,726.6z
		 M549.1,584.3c-0.1,0.6-0.2,1.3-0.3,1.9c-3.2,21.6,0,44.2,9.3,63.6c12.6,26.5,36.4,47.7,67.2,59.9c28.8,11.4,60.4,13.9,87.5,14.8
		c78.5,2.7,137.6-8.6,185.7-35.4c28-15.6,45.8-34.7,52.6-56.9c6.2-19.9,3.8-43.4-6.6-64.6c-8.6-17.6-22.7-33.8-41.8-48
		c-36.9-27.5-84-42.9-140.2-45.8c-19.6-1-38.7-0.3-56.9,1.9c21.3,0.4,42.3,3.1,61.7,6.3c25.5,4.2,52.5,9.7,77.4,21.6
		c17.6,8.4,28.8,18.5,34.4,31l-1.6,0.7c-5.4-12.1-16.4-21.9-33.6-30.1c-24.7-11.8-51.6-17.3-77-21.4c-23.1-3.8-48.5-6.9-74-6.2
		c-36.5,6.1-69.7,18.7-98,37.5c-10.9,7.2-19.4,14.4-26,21.9c-8.1,11.4-14.1,24-17.7,37.2c-0.7,5.2-0.7,10.4,0,15.4l-1.7,0.3
		C549.3,588.1,549.1,586.2,549.1,584.3z M679.7,478.3c-14.8,1.3-29.5,4.1-43.7,9c-22.8,7.9-42.7,21.3-57.8,38.2
		c4.6-4,9.9-7.9,15.9-11.9C619.2,496.9,648,485.1,679.7,478.3z"/>
	<path d="M670.7,770.4l-0.8-1.6c40.7-19.4,85.5-29.1,128.9-38.5c25.9-5.6,52.6-11.4,78.2-19.2c19-5.8,40-13.9,51.8-30.8l1.4,1
		c-12.1,17.3-33.4,25.6-52.7,31.5c-25.7,7.8-52.5,13.6-78.4,19.2C755.9,741.4,711.1,751.1,670.7,770.4z"/>
	<path d="M388.2,777.4c-18,0-35.9-7.5-48.1-20.9c-8.8-9.6-14.8-24.5-8.4-36.2c3.7-6.8,10.9-10.9,16-13.4c26.6-13,58.6-13.5,85.5-1.2
		l-0.7,1.6c-26.5-12.1-57.9-11.7-84,1.1c-4.9,2.4-11.8,6.3-15.3,12.7c-6,11-0.3,25.1,8.1,34.2c15.1,16.4,38.9,23.8,60.7,18.7
		c11.6-2.7,21.3-8.6,27.2-16.6c6.8-9.2,8.5-21.1,4.2-30.4c-4.2-9.2-14.5-16.2-26.8-18.2c-11.4-1.9-23.5,0.2-34.1,2l-0.3-1.7
		c10.8-1.8,23-3.9,34.7-2c13.1,2.1,23.6,9.3,28.1,19.2c4.5,9.9,2.8,22.5-4.4,32.2c-6.2,8.4-16.3,14.5-28.2,17.3
		C397.7,776.9,393,777.4,388.2,777.4z"/>
	<path d="M593.9,635.2l-1.4-1c28-39.7,62.3-74.2,101.8-102.6l1,1.4C655.9,561.3,621.8,595.6,593.9,635.2z"/>
	<path d="M625.6,682.3c-10.2-6.9-22.5-16.7-26.9-30.7c-4.3-13.7,0-28.3,3.6-38.2c6.7-18.2,19.6-42.4,43.1-54.5l0.8,1.5
		c-23,11.8-35.7,35.6-42.2,53.5c-3.5,9.6-7.8,23.9-3.6,37.1c4.2,13.5,16.2,23,26.2,29.7L625.6,682.3z"/>
	<path d="M508.4,677.3c-13.9-23.2-11.3-52-7.2-81.8c2.5-17.7,5-35.9,11.9-52.8c7.7-18.9,20.2-33.2,35.2-40.2l0.7,1.6
		c-14.6,6.8-26.7,20.8-34.3,39.3c-6.8,16.7-9.3,34.8-11.8,52.4c-4.1,29.5-6.7,57.9,7,80.7L508.4,677.3z"/>
	<path d="M474.6,631.7l-1.7,0c0.1-35,0.2-74.6,13.7-109.7l1.6,0.6C474.8,557.4,474.7,596.8,474.6,631.7z"/>
	<path d="M554.9,664.2c-1.7-29.8,1-55.1,8.4-77.6c8.7-26.6,24.5-49.1,44.5-63.3l1,1.4c-19.7,14-35.3,36.1-43.9,62.4
		c-7.3,22.2-10,47.4-8.3,76.9L554.9,664.2z"/>
	<path d="M536.6,705.7c-29.9-43.4-6.6-127.7,22-164.4c10.2-13.1,24.3-22.1,44.4-28.2c1.5-0.5,3.2-1,5.1-1.6
		c19.6-6.2,56-17.8,67.6-2.2l-1.4,1c-10.9-14.6-47.9-2.8-65.7,2.8c-1.9,0.6-3.6,1.1-5.1,1.6c-19.7,6-33.5,14.8-43.5,27.6
		c-14.9,19.2-27.5,49.8-32.7,79.8c-6,34.3-2.2,63.6,10.8,82.5L536.6,705.7z"/>
	<path d="M625.4,434.1c-89.1,0-156.7-16.9-210.2-52.2c-7.3-4.8-14.7-10.3-19.3-18l1.5-0.9c4.4,7.3,11.6,12.7,18.7,17.4
		c62.2,41,143.6,57.1,256.3,50.4l0.1,1.7C656.2,433.6,640.5,434.1,625.4,434.1z"/>
	<path d="M780.4,452.5c-83.1,0-166.8-3-249.4-9l0.1-1.7c94.4,6.8,190.3,9.8,285,8.8l0,1.7C804.3,452.4,792.4,452.5,780.4,452.5z"/>
	<path d="M451.7,714.9c-10.4,0-20.7-0.3-30.6-0.5l0-1.7c38.5,1,82,2.2,120.4-12.9l0.6,1.6C513.5,712.7,481.9,714.9,451.7,714.9z"/>
	<path d="M429.4,775.9l-0.3-1.7c39.7-7.9,80.3-12,120.7-12.3l0,1.7C509.4,763.9,468.9,768,429.4,775.9z"/>
	<path d="M670,797.9c-5.5,0-10.9-0.1-16.4-0.5l0.1-1.7c47.7,2.7,94.2-7.2,139.2-16.9c38.1-8.2,77.4-16.6,117.2-17.2
		c7.9-0.1,15.4,0.5,22.6,1c16.5,1.3,32,2.6,49.4-5.6c16.1-7.5,39.8-31.1,40.2-50.9c0.2-9.5-5-17-15.4-22.3l0.8-1.5
		c11,5.7,16.5,13.7,16.3,23.9c-0.4,20.5-24.6,44.7-41.2,52.5c-17.8,8.3-33.6,7-50.3,5.7c-7.2-0.6-14.6-1.2-22.4-1
		c-39.6,0.7-78.9,9.1-116.8,17.2C753.3,789,712.1,797.9,670,797.9z"/>
</svg>
