<svg version="1.1"  xmlns="http://www.w3.org/2000/svg" xmlns:xlink="http://www.w3.org/1999/xlink" x="0px" y="0px" viewBox="0 0 1024 1024" style="enable-background:new 0 0 1024 1024;" xml:space="preserve">
	<path d="M377.9,721.4l-1.8-1.1c11.5-19.3,11.3-43,11.1-65.9c0-2.4,0-4.9,0-7.3c-0.1-72.5,17.4-142.4,50.7-202
		c17.9-32.1,40.4-60.1,64.2-89.7c4.3-5.4,8.6-10.7,12.9-16.1l1.6,1.3c-4.3,5.4-8.6,10.8-12.9,16.1c-23.8,29.6-46.2,57.5-64,89.4
		c-33.1,59.3-50.5,128.8-50.4,200.9c0,2.4,0,4.9,0,7.3C389.5,677.6,389.7,701.6,377.9,721.4z"/>
	<path d="M686.1,590.5l-1.5-1.5c-3.3-3.2-6.1-7.6-8.1-12.5c-0.2,1.5-0.5,3-0.9,4.4l-0.5,1.7l-1.2-1.3c-3-3.2-5.5-6.9-7.2-11
		c-0.3,4.8-1.3,9.6-3.1,14.1l-2.2,5.7l0.2-6.1c0.4-13.3-7.7-27.1-21.7-36.9c-9.7-6.7-20.9-11.2-31.8-15.4c-3.1-1.2-6.2-2.4-9.3-3.7
		c-12.5-5.2-28-12.8-37.5-26c-2.7-3.8-4.9-8-7-12.1c-3.2-6.2-6.3-12.1-11-16.8l1.4-1.5c5,4.9,8.3,11.2,11.4,17.3
		c2.1,4,4.3,8.2,6.9,11.9c9.2,12.8,24.4,20.3,36.6,25.3c3.1,1.3,6.2,2.5,9.3,3.7c11,4.3,22.4,8.8,32.3,15.7
		c12.6,8.8,20.6,20.8,22.3,32.9c1.2-4.8,1.6-9.8,1.2-14.8c-0.3-1.6-0.6-3.2-0.7-4.9l2-0.3c0.3,1.6,0.5,3.2,0.7,4.8
		c1.2,5.6,3.8,10.9,7.5,15.3c0.6-2.9,0.7-5.9,0.3-8.8l2-0.4c1.6,6.5,4.4,12.3,8.1,16.6c3.4-36.3-13-54.6-42.4-73.6
		c-12.7-8.2-21-16.3-26.4-25.4c-8.2-14.1-9.2-30.9-10.2-47.1c-1-16.7-2.1-33.9-11-47.7l1.7-1.1c9.3,14.3,10.3,31.8,11.4,48.7
		c1,16,2,32.6,9.9,46.2c5.2,8.8,13.3,16.7,25.7,24.7c30.7,19.8,47.5,38.9,43.1,77.9L686.1,590.5z"/>
	<path d="M742.3,533l-6.2-25.2c-2.5,5.6-3.9,11.8-4.2,17.9l-2.1-0.1l0.2-22.2l-11.1,22.2l-1.7-19l-7,19.7l1.4-23.7
		c0.1-1.8,0.1-3.4-0.7-4.5c-0.9-1.3-2.9-1.8-4.7-2.2l-0.6-0.1c-13.6-3.2-24-16.1-24.2-30l2.1,0c0.3,13,10,25.1,22.7,28.1l0.6,0.1
		c2.1,0.5,4.6,1,6,3c1.2,1.7,1.2,3.7,1,5.8l-0.5,9.2l5.3-14.9l1.9,21.1l11.8-23.7L732,513c0.9-3,2.1-5.9,3.5-8.7l1.3-2.5l5.6,22.7
		c1.4-10.9-4.1-22-9.3-32.7c-1.3-2.7-2.7-5.5-3.9-8.3c-6.7-14.8-9.8-30.9-12.9-46.4l-9.6-48.6c-2.6-13.2-5.3-26.8-4.3-40.6
		c1.1-15.4,7.3-28.7,17-36.7l1.3,1.6c-9.2,7.6-15.1,20.4-16.2,35.2c-1,13.5,1.7,27,4.2,40.1l9.6,48.6c3,15.4,6.2,31.4,12.8,46
		c1.2,2.7,2.6,5.5,3.9,8.2c6.1,12.5,12.5,25.4,8.5,38.5L742.3,533z"/>
	<path d="M669.9,533.4l-1.5-1.5c7.1-7,12.1-16.1,14.2-25.8c1.8-8.3,1.5-16.9,1.1-25.6c-1.7-33.2-6-66.6-12.7-99.1l2-0.4
		c6.7,32.7,11,66.1,12.8,99.4c0.5,8.9,0.7,17.6-1.1,26.1C682.5,516.6,677.2,526.1,669.9,533.4z"/>
	<path d="M540.5,773.1l-0.8-1.9c27.9-11,51.4-27.6,68.1-48.1c18.4-22.6,28.5-50.9,27.8-77.5c-0.1-5.2-0.7-10.4-1.2-15.5
		c-0.6-6.1-1.3-12.5-1.2-18.8c0.1-15.6,4.3-30.8,8.3-45.5l2,0.5c-4,14.6-8.1,29.6-8.2,44.9c0,6.2,0.6,12.5,1.2,18.5
		c0.5,5.1,1.1,10.4,1.2,15.6c0.8,27.5-9.3,55.5-28.2,78.9C592.5,745.1,568.7,762,540.5,773.1z"/>
	<path d="M504.2,862l-2.8-23.8l-13.8,15.4c-1.6,1.8-4.3,3.6-6.5,3.4c-1.1-0.1-2-0.7-2.7-1.6l-0.1-0.4c-0.9-6.2,1.4-12.8,5.8-17.3
		c-9,1.1-17.9,3.9-25.8,8.3l-0.7,0.4l-0.6-0.6c-0.9-1-1.4-2.2-1.2-3.6c0.3-2.9,3.2-5.8,5.5-7.4c1.2-0.8,2.5-1.7,3.9-2.5
		c8.1-5.2,18.1-11.7,18.4-19c0.1-3.5-2.1-7.1-6.7-10.6c-6.8-5.2-19.6-5.1-31-5.1c-5.5,0-10.7,0-14.9-0.5c-12.6-1.8-24-6.6-35.1-11.2
		c-10.9-4.6-21.2-8.9-32.4-10.5c-4.5-0.6-8.9-1.2-13.2-1.8c-25.4-3.4-49.4-6.6-74.1-18.2c-10.4-4.9-23.2-12.1-29-24.3
		c-6.7-14.1-2.5-32.7,10.3-45.3c10.2-10.1,25.1-16.5,44.1-19.1c2-0.3,4-0.5,6.1-0.7c8-0.9,16.2-1.8,23.3-5.4c1.2-0.6,2.6-1.4,3-2.7
		c0.4-1.1,0.1-2.4-0.9-4.3c-6.2-11.3-20-12.6-33.3-13.8c-1.4-0.1-2.8-0.3-4.2-0.4l-3-0.3l2.5-1.6c5.3-3.3,24-5.6,36.3-2
		c9.2,2.7,17.2,5.7,21,15.7c3.9,10.1,0.1,20.1-9.5,25.6c-9,5-19.5,5.7-29.6,6.4l-0.9,0.1c-10.7,0.7-21,1.8-29.2,7.5
		c-1.1,0.8-2.5,1.9-3.2,3.3c-2.2,4.5,3,9.7,5.4,11.7c10.3,8.7,26.5,19.4,45.7,20.7c17.9,1.1,35.3-7.2,43.2-20.9l1.8,1
		c-8.3,14.3-26.4,23.1-45.1,21.9c-19.7-1.3-36.4-12.2-46.9-21.2c-5.7-4.9-7.9-10-5.9-14.1c0.9-1.9,2.6-3.2,3.9-4.1
		c8.6-5.9,19.7-7.1,30.2-7.9l0.9-0.1c9.9-0.7,20.2-1.4,28.8-6.2c8.7-4.9,12.1-13.9,8.6-23c-3.5-9.1-10.7-11.8-19.7-14.5
		c-9.6-2.8-23.6-1.8-30.9,0.3c0,0,0.1,0,0.1,0c13.2,1.2,28.2,2.6,34.9,14.8c0.8,1.5,1.9,3.8,1.1,6c-0.7,1.9-2.5,3-4,3.8
		c-7.4,3.7-15.9,4.7-24,5.6c-2,0.2-4,0.5-6,0.7c-18.6,2.5-33.1,8.7-43,18.5c-11.9,11.8-16.1,29.8-9.8,42.9
		c5.5,11.7,17.9,18.6,28,23.3c24.5,11.4,48.3,14.6,73.5,18c4.4,0.6,8.8,1.2,13.3,1.8c11.4,1.6,22.4,6.2,32.9,10.6
		c11,4.6,22.3,9.3,34.6,11c4,0.6,9.1,0.5,14.6,0.5c11.7-0.1,24.9-0.1,32.3,5.5c5.2,4,7.7,8.1,7.5,12.3c-0.3,8.4-10.9,15.2-19.3,20.6
		c-1.4,0.9-2.7,1.7-3.8,2.5c-2.1,1.4-4.4,3.8-4.6,5.9c-0.1,0.5,0,0.9,0.2,1.3c8.9-4.8,18.9-7.7,29.1-8.5l3.6-0.3l-3,2.1
		c-5.3,3.8-8.3,10.7-7.5,17.2c0.2,0.3,0.6,0.5,1,0.5c1.3,0.1,3.4-1,4.8-2.7l16.9-18.8l2.9,25.1c3.3-2.5,5.4-6.6,5.4-10.7
		c0-0.3,0-0.7,0-1c-0.1-1.3-0.1-2.7,0.4-4c0.5-1.2,1.6-2.1,2.8-2.4c1-0.2,1.9-0.1,2.6,0.5c0.8,0.6,1.1,1.6,1.3,2.3
		c1.8,5.5,6.1,10,11.3,12.2c-4.7-5.4-7.3-12.7-6.9-19.9l0.1-1.1l1.1,0.1c4.3,0.4,8.1,2.7,11.7,5c1,0.6,2,1.2,3,1.8
		c2.6,1.5,9.2,4.6,13.8,1.3c0.8-0.6,1.6-1.6,1.3-2.5c-0.2-0.6-0.9-1.1-1.7-1.6l-24.3-15.1c-8.5-5.3-13.5-11.5-15.1-18.9
		c-3.3-14.6,7.1-30.8,17.2-46.4c6.1-9.5,11.9-18.4,14.1-26.3c6.4-23.3,5.9-50.2-1.6-82.2l2-0.5c7.5,32.3,8,59.5,1.6,83.2
		c-2.2,8.2-8.1,17.3-14.3,26.9c-9.8,15.3-20,31-16.9,44.8c1.5,6.8,6.2,12.6,14.2,17.6l24.3,15.1c0.8,0.5,2.1,1.3,2.5,2.7
		c0.6,2-0.7,3.8-2.1,4.8c-5.6,4-13,0.5-16-1.2c-1-0.6-2-1.2-3-1.9c-3.2-2-6.2-3.9-9.6-4.5c0,7.6,3.4,15.2,9.2,20l3,2.5l-3.9-0.7
		c-7.7-1.4-14.3-7.2-16.7-14.6c-0.2-0.7-0.4-1.2-0.7-1.5c-0.2-0.2-0.5-0.2-0.8-0.1c-0.6,0.1-1.2,0.6-1.4,1.2c-0.4,0.9-0.3,2-0.3,3.2
		c0,0.4,0,0.7,0,1.1c0.1,5.5-3,10.8-7.8,13.4L504.2,862z"/>
	<path d="M575.8,820.8c-0.3,0-0.7,0-1-0.1c-2.7-0.4-5.1-2.1-6.9-3.4l-41.1-30.1l1.2-1.7l41.1,30.1c1.8,1.3,3.8,2.8,6,3.1
		c3.1,0.4,6.4-1.9,7-5c0.5-2.5-0.7-5.2-2.8-6.6c-0.6-0.3-1.2-0.5-1.8-0.8l0.7-1.9c0.7,0.2,1.4,0.5,2.1,0.9c16.1,7.2,34.7,9,51.9,5.1
		c-6.5-0.8-13.2-0.6-19.6,0.7l-3.1,0.6l2.2-2.3c5.1-5.5,12.8-5.4,20.3-5.2c6,0.1,12.2,0.3,17-2.6c-1.9-4.1-7.1-6.3-15.8-6.9l-4-0.3
		c-22.4-1.4-45.5-2.9-65.4-13.4c-5.8-3.1-8.7-6.8-8.4-10.8l2.1,0.1c-0.3,4,3.8,7,7.3,8.8c19.5,10.3,42.4,11.7,64.6,13.1l4,0.3
		c3.8,0.2,15.2,1,18,9l0.3,0.7l-0.7,0.4c-5.4,3.7-12.3,3.5-18.9,3.4c-5.8-0.1-11.4-0.2-15.7,2.1c7-1,14.3-0.7,21.2,0.7l4.1,0.8
		l-4,1.2c-17.6,5.1-36.9,4.3-54-2.3c0.8,1.6,1.1,3.5,0.7,5.3C583.3,817.9,579.6,820.8,575.8,820.8z"/>
	<path d="M600,266.1c-8.6,0-17.6-2.9-25.5-8.3c-8.3-5.7-15.4-14.2-21.1-25c-4.2-7.9-6.1-14.4-6.1-20.6c0-8.1,3.7-15.4,9.6-19
		c7.6-4.6,18-3.3,30.8,3.9c7.5,4.2,17.7,11,19.1,21.8c0.1,0.7,0.2,1.5,0.6,1.8c0,0,0,0.2,0.2,0.4l1.4-1.5c0.6,0.6,0.7,1.5,0.1,2.2
		c-0.6,0.8-1.8,1.2-2.8,0.6c-1.2-0.7-1.4-2.2-1.5-3.2c-1-7.5-6.8-13.9-18.1-20.3c-12.1-6.8-21.8-8.1-28.7-3.9
		c-5.3,3.2-8.6,9.9-8.6,17.2c0,5.9,1.9,12.1,5.9,19.6c5.6,10.6,12.5,18.7,20.5,24.3c8.1,5.6,17.4,8.4,26.2,7.9
		c-5.2-2.7-10.9-7.5-14.1-11.4c-0.9-1.1-2-2.6-1.9-4.4c0.1-2.4,2.4-4.1,3.6-4.9l14.2-10.3l1.2,1.7L590.8,245c-1.3,0.9-2.6,2-2.7,3.4
		c-0.1,1,0.7,2.1,1.4,2.9c3.8,4.6,11.4,10.7,16.8,12.3l4.2,1.3l-4.3,0.7C604.2,266,602.1,266.1,600,266.1z"/>
	<path d="M715.9,430l-7.7-86.2c-0.9-10.4-2-22.1,2.5-32.5c4.2-9.9,12.8-16.9,21-23.7c8.4-6.9,17.1-14.1,20.8-24.2
		c2.3-6.2,5.8-11.7,9.2-17.1c5.4-8.5,10.5-16.5,11.1-27.2c0.4-7.7-1.9-17.5-9.4-21.5c-2.7-1.5-5.9-2.1-9-2.6l-41.3-7.5
		c-14.5-2.6-70.7-8.9-84.5-7.7l-0.2-2.1c14-1.2,70.5,5.1,85.1,7.7l41.3,7.5c3.1,0.6,6.6,1.2,9.6,2.8c8.4,4.5,10.9,15.1,10.5,23.5
		c-0.6,11.2-6.1,19.8-11.4,28.2c-3.3,5.2-6.8,10.6-9,16.7c-3.9,10.6-12.8,17.9-21.5,25c-8.1,6.7-16.4,13.5-20.4,22.9
		c-4.3,9.9-3.2,21.4-2.3,31.5l7.7,86.2L715.9,430z"/>
	<path d="M754.7,242.9l-2.1-0.1c-0.1-3.6,0.1-7.1,0.4-10.7c-0.4-3.2-1.5-6.1-3.8-8.2c-1.2-1-2.6-1.9-4.1-2.7
		c-2.5-1.4-5.1-2.9-6.4-5.7l1.9-0.9c1,2.2,3.2,3.4,5.6,4.7c1.5,0.9,3.1,1.8,4.4,3c1.3,1.2,2.3,2.6,3,4.2c0.7-4.7,1.7-9.4,3-13.9
		l2,0.6c-1.8,6.2-3,12.5-3.5,18.9C755.5,235.5,755.2,239.2,754.7,242.9z"/>
	<path d="M655.5,218.4c-1.7,0-3.5-0.1-5.2-0.4l-1.3-0.2l0.5-1.2c2.1-4.9,4.5-10.5,8.9-14.3c4.2-3.8,11.3-5.8,16.5-2.3
		c1.4,0.9,2.7,2.2,3.9,3.5c2.3,2.3,4.2,4.4,6.8,3.9l0.4,2c-3.6,0.7-6.2-1.9-8.6-4.5c-1.1-1.2-2.3-2.4-3.5-3.2
		c-4.3-2.9-10.4-1-14,2.1c-3.7,3.3-5.9,8-7.8,12.4c9.3,1.2,19.1-2.4,25.3-9.4l1.5,1.4C673,214.6,664.2,218.4,655.5,218.4z"/>
	<path d="M704.9,184.8c-2.1-5.3-4.5-11.2-9-15.3c-4-3.6-10.8-5.6-15.5-2.1c-1.9,1.4-3.2,3.4-4.5,5.5l-5.4,8.4l-1.7-1.1l5.4-8.4
		c1.3-2.1,2.8-4.4,5-6c5.6-4.1,13.5-1.9,18.1,2.3c4.8,4.3,7.3,10.5,9.5,16L704.9,184.8z"/>
	<path d="M560.6,382.2c-14.4-10.2-30.6-21.8-38.9-39.1c-0.3-0.6-0.6-1.3-1.1-2.1c-18-34.8-19.8-72-5.4-110.4
		c8.4-22.5,26.2-42.8,50.1-57.1c23.8-14.2,71.1-16.2,98.8,2.6l-1.2,1.7c-27.1-18.3-73.3-16.5-96.6-2.5c-23.5,14.1-41,33.9-49.3,56
		c-14.2,37.8-12.4,74.4,5.3,108.7c0.5,0.9,0.8,1.6,1.1,2.2c8.1,16.8,24.1,28.2,38.3,38.3L560.6,382.2z"/>
	<path d="M668.5,298.6c-3,0-6-0.4-8.9-0.9c-8.1-1.3-16.4-3.2-22.1-8.8c-3.7-3.7-6.4-8.7-8.3-16c-4.2-16.1-3-32.9-1.8-49.2
		c0.6-8.2,1.2-16.7,1.1-24.9c-0.1-5.3-0.5-9.6-2.2-13.4c-2-4.4-5.9-7.3-9.8-7.6l0.1-2.1c4.7,0.3,9.2,3.7,11.6,8.8
		c2.1,4.4,2.4,9.5,2.4,14.2c0.1,8.3-0.5,16.9-1.1,25.1c-1.1,16.1-2.3,32.8,1.8,48.5c1.8,6.9,4.3,11.7,7.7,15.1
		c5.3,5.2,13.2,7,21,8.3c4.5,0.7,9.4,1.3,13.9,0.3c3.8-0.9,8.4-3.4,9.9-8l2,0.7c-1.5,4.5-5.9,8.1-11.4,9.3
		C672.4,298.4,670.4,298.6,668.5,298.6z"/>
	<path d="M629.4,317.9c-11.1,0-21.3-3.6-28.3-10.1c-0.4-0.3-0.7-0.7-1.1-1.1c-1.5-1.4-2.8-2.8-4.6-3.5l0.8-1.9
		c2.1,0.9,3.7,2.4,5.2,3.9c0.4,0.4,0.7,0.7,1.1,1c7.1,6.6,17.7,10.1,29.2,9.5c9.1-0.4,18.5-3.1,30.6-8.5l0.9,1.9
		c-12.3,5.6-22,8.3-31.3,8.7C631,317.9,630.2,317.9,629.4,317.9z"/>
	<path d="M586.9,375.3c-4.8,0-9.6-0.4-14.3-1.4l0.4-2c30.6,5.9,63.9-8.5,80.9-34.6c-13.1,7.2-30,3.7-41-3.3
		c-13.7-8.6-23-22.7-30.6-35.1c-4.5-7.3-9-15.2-11-23.8l2-0.5c2,8.3,6.4,16,10.8,23.2c7.5,12.3,16.6,26.1,29.9,34.5
		c11.5,7.3,29.8,10.6,42.5,0.9l4-3.1l-2.5,4.4C643.8,359.5,615.5,375.3,586.9,375.3z"/>
	<path d="M480.1,363.6c-2.4,0-4.7-0.4-6.9-1.4c-5.6-2.4-9.3-7.7-12.3-12l-0.2-0.3l0-0.4c0.1-0.9,0.8-1.1,1-1.2
		c0.9-0.2,1.5,0.6,2.3,2c0.1,0.1,0.7,0,1.4-0.4c25.9-14.8,43.8-42.4,46.9-72l2.1,0.2c-3.1,30.3-21.5,58.5-47.9,73.6
		c-0.3,0.2-0.8,0.4-1.4,0.6c2.4,3.2,5.3,6.3,9,7.9c8.1,3.4,17.2-1,25.1-5.4l1,1.8C493.6,360.4,486.7,363.6,480.1,363.6z"/>
	<path d="M712.7,384.2l-0.4-2c4.8-0.9,9.3-3.5,13.4-6c22.3-13.9,41.2-33,54.8-55.5c-8.7,5.3-19.8,6.8-29.5,3.7
		c-11.3-3.6-20.5-13.4-23.4-24.9l2-0.5c2.8,10.8,11.4,20,22.1,23.4c10.6,3.4,23,0.9,31.6-6.3l4.4-3.7l-2.8,5
		c-13.9,24.6-34,45.5-58,60.4C722.5,380.6,717.8,383.2,712.7,384.2z"/>
	<path d="M679.5,225.7c-5.9,0-11.7-2-16.8-3.8l-16.8-5.9c-2.5,0.1-5,0.3-7.5,0.7c-8.5,1.1-16.9,2.8-25.1,5c-3.5,1.1-7,2.2-10.5,3.2
		l-0.6-2c3.5-1.2,7-2.2,10.5-3.2c4.9-1.6,9.8-3.3,14.7-5.2c-5.3,0.6-10.5,1.4-15.7,2.5c-3,0.9-6.1,1.6-9.2,2.3l-0.5-2
		c3-0.8,6.1-1.6,9.2-2.3c7.7-2.1,15.1-4.9,22.3-8.3c5.9-4.5,13.6-6.3,21-8.1l0.7-0.2c21.6-5.2,42.8-12.1,63.3-20.7
		c2.6-1.5,5.2-3,7.8-4.7c0.3-0.4,0.7-0.8,1.1-1.2c1.4-1.4,3.2-2.4,5.1-2.9c2.9-2,5.7-4,8.4-6.2l1-0.8l0.5,1.2c0.5,1.1,1,2.3,1.3,3.5
		c0.8,0.2,1.6,0.5,2.3,1.1c1.1,0.8,1.8,2.1,2.4,3.8c1.6,5.3-0.2,11.2-4.1,15c-0.3,0.7-0.8,1.4-1.4,1.9c-0.5,0.4-1.2,0.7-1.8,0.8
		c-5,4.2-12.5,4.8-17.6,1.3l-2.2-1.4c-0.9,1.9-1.9,3.8-3,5.6c1.6-1.1,3.4-1.8,5-1.8c1.5-0.1,2.9,0.6,3.9,1.8l-1.6,1.3
		c-0.6-0.7-1.3-1-2.3-1c-2.5,0-5.5,2.4-7.3,4.6l-1.3,1.5c-9.2,11.2-19.7,24-34.5,24.5C680.1,225.7,679.8,225.7,679.5,225.7z
		 M664.2,220.2c5,1.7,10.6,3.6,16.1,3.4c5.1-0.2,9.7-2,13.9-4.7c-1.8,0.7-3.6,1.3-5.5,1.8C680.6,222.4,672.2,221.8,664.2,220.2z
		 M685.8,217.8c-1.8,0.7-3.6,1.3-5.3,1.8c2.6-0.1,5.2-0.4,7.8-1c5.4-1.2,10.9-4.2,15.1-8.2c-2.3,1.6-4.8,2.9-7.4,4.1
		C692.7,216,689.3,217.1,685.8,217.8z M666.7,218.2c0.3,0.1,0.7,0.1,1,0.2c1.1,0.2,2.1,0.3,3.2,0.3
		C669.5,218.6,668.1,218.4,666.7,218.2z M656.3,201.9c-2.2,1.1-4.4,2.7-5.2,4.6c-0.4,1-0.4,1.9,0,2.9c0.7,1.5,2.4,2.4,3.9,3.1
		c9.3,4.2,20.1,5.3,30.1,3.3c2.1-0.9,4.2-1.9,6.3-3.1c7.4-4.2,14.1-9.7,19.7-16.1c0.3-2,0.4-4,0.1-6c-5.2-0.5-10.3-0.4-15.5,0.2
		c-10.8,4.3-22,7.6-33.3,9.9c-1.2,0.2-2.5,0.5-3.8,0.7C658,201.6,657.1,201.8,656.3,201.9z M637.2,212.8l-2.4,1
		c-1.8,0.7-3.5,1.4-5.3,2.1c2.9-0.5,5.8-1,8.7-1.3c0.9-0.1,1.9-0.2,2.8-0.3l-1.5-0.5C638.7,213.5,638,213.2,637.2,212.8z
		 M648.4,213.9c1.9,0.1,3.7,0.2,5.5,0.6c0.3,0.1,0.6,0.1,1,0.2c-0.2-0.1-0.4-0.2-0.6-0.3c-1.9-0.9-4-2.1-5-4.2c-0.7-1.5-0.7-3,0-4.5
		c0.4-1,1.1-1.9,2-2.8c-5.5,1.2-10.8,2.9-15.4,6c0.4,0.7,1.1,1.3,1.9,1.8l2.4,0.7l0.6,0l-0.3,0.1l6.9,2.1
		C647.7,213.7,648,213.8,648.4,213.9z M630,210.6c-1.8,0.8-3.5,1.5-5.3,2.2c3.2-0.4,6.4-0.7,9.5-0.9L630,210.6z M709.9,201.1
		c-3.8,3.9-8.1,7.5-12.6,10.5c4.2-2.2,8.1-5,11.6-8.3C709.3,202.6,709.6,201.8,709.9,201.1z M633.4,209.5l0.4,0.1
		c0-0.1-0.1-0.2-0.1-0.3C633.6,209.3,633.5,209.4,633.4,209.5z M713.2,197.5c-0.1,0.5-0.2,0.9-0.3,1.4c1.9-2.3,3.5-4.7,4.9-7.3
		C716.4,193.6,714.9,195.6,713.2,197.5z M683.7,193.1c-4.4,1.1-8.8,2.4-13.1,3.7C675,195.8,679.3,194.5,683.7,193.1z M704.9,188.2
		c2.5,0,5,0.1,7.5,0.4l0.8,0.1l0.1,0.8c0.3,1.4,0.4,2.9,0.4,4.3c3.5-4.3,6.4-9.1,8.9-14l0.5-1c0.1-0.3,0.3-0.6,0.4-0.9
		c-1.3,0.6-2.7,1.1-4,1.7c-5.6,3.2-11.4,6.1-17.4,8.7C703,188.3,703.9,188.2,704.9,188.2z M728.3,190.5c1.8,0.4,3.7,0.4,5.6,0
		c-0.8,0-1.6-0.1-2.4-0.3L728.3,190.5z M723,185.2c-0.4,1.3-0.9,2.5-1.5,3.7l5.5-0.4C725.5,187.7,724.1,186.6,723,185.2z M696,188.6
		c-0.2,0.1-0.4,0.2-0.7,0.2c0,0,0.1,0,0.1,0C695.6,188.8,695.8,188.7,696,188.6z M723.5,182.4L723.5,182.4c1.8,3,4.9,5,8.3,5.7
		l2.6-0.2c-0.4-0.1-0.8-0.3-1.1-0.4c-2.8-1.3-4.8-3.7-5.1-6.5c-0.3-2.1,0.3-4,1.2-5.7c-1,0.4-1.9,0.9-2.9,1.3
		c-0.6,1-1.1,2.1-1.6,3.1l-0.5,1C724.1,181.2,723.8,181.8,723.5,182.4z M733.3,173.5c-1.8,1.9-3.4,4.4-3.1,7.3
		c0.3,2,1.7,3.8,3.9,4.9c2.3,1.1,5,1,6.8-0.2c0.9-0.6,1.7-1.5,2.2-2.5c0.4-2.5,0.4-5.1,0.2-7.6c-0.4-0.9-0.9-1.6-1.6-2.3
		c-1-0.9-2.1-1.6-3.4-1.9C736.7,171.9,735,172.7,733.3,173.5z M744.9,171.3c0.1,0.8,0.3,1.6,0.4,2.4c0-0.5-0.1-1-0.2-1.5
		C745.1,171.9,745,171.6,744.9,171.3z M741.1,170c0.6,0.3,1.1,0.7,1.6,1.1c-0.1-0.4-0.2-0.9-0.3-1.3
		C742,169.8,741.6,169.9,741.1,170z M741.1,165.3c-1.1,0.8-2.2,1.6-3.3,2.4c1.3-0.6,2.6-1,3.8-1.1
		C741.4,166.2,741.2,165.7,741.1,165.3z"/>
	<path d="M408.2,720.7c-6.8-10.7-8.7-23.5-10-34.6c-4.5-39.1-2.7-78.5,5.3-117l2,0.4c-7.9,38.3-9.7,77.5-5.2,116.4
		c1.2,10.9,3.1,23.4,9.7,33.7L408.2,720.7z"/>
	<path d="M478.7,815.4c-0.2,0-0.5,0-0.7,0c-9-0.3-16.6-6.3-23.1-11.8c-41.4-35.9-69.1-77.3-80.1-119.7c-6.6-25.6-6.8-52.2-1.1-76.5
		c1.7-8.7,4.5-17,8.1-24.6c5.9-13.5,13.8-25.7,23.6-36c10.8-11.3,21.9-17.9,33-19.7c18-2.9,36.1,6.9,49.3,14
		c15.4,8.3,31.4,17,43.7,30.2c13.8,14.9,19.7,33.3,15.8,49.4l-2-0.5c3.7-15.2-2.2-33.4-15.3-47.5c-12-13-27.8-21.5-43.1-29.8
		c-12.9-7-30.6-16.5-48-13.8c-10.7,1.7-21.4,8.1-31.8,19c-4,4.2-7.7,8.8-11.1,13.6c1.5-1.6,3-3.2,4.7-4.7
		c7.5-6.9,15.4-11.3,23.5-13.1c12.2-2.7,25,0.7,35.3,3.4c8.7,2.3,19.5,5.1,27.7,11.7c9.6,7.8,14.4,19.7,18.7,30.2l26.9,66.5
		c4.6,11.3,9.3,23.1,10.4,35.6c1.1,12.8-1.7,25.3-4.3,34.9c-6.6,24.2-17,47-30.9,67.9C498.3,808.4,488.8,815.4,478.7,815.4z
		 M371.8,639.1c-0.4,14.6,1.3,29.5,5.1,44.1c10.9,42,38.3,83,79.4,118.7c6.1,5.3,13.4,11,21.8,11.3c9.5,0.3,18.8-6.3,28-20.3
		c13.7-20.7,24-43.3,30.6-67.3c2.6-9.4,5.4-21.7,4.3-34.2c-1.1-12.2-5.8-23.8-10.3-35l-26.9-66.5c-4.2-10.3-8.9-21.9-18-29.4
		c-7.8-6.4-18.4-9.1-26.9-11.3c-10.1-2.6-22.6-5.9-34.3-3.3c-7.7,1.7-15.3,5.9-22.5,12.6c-7.4,6.8-13.5,15.3-18.2,25
		c-3.3,7.6-5.9,15.6-7.9,23.9c-1.1,5.5-1.8,11.2-2.1,17.1c-1,21.1,3.1,44.1,13,72.4c6.4,18.4,15.9,41.7,32.8,59.8
		c17,18.2,39.7,27.9,60.5,25.9l0.2,2.1c-21.5,2.1-44.8-7.8-62.2-26.5c-17.2-18.4-26.8-42-33.2-60.6
		C377.1,675.5,372.8,656.5,371.8,639.1z"/>
	<path d="M554.1,717.8l-1.7-1.1c24.4-37.4,54.7-83.9,56.7-134.4l2.1,0.1C609.1,633.4,578.6,680.2,554.1,717.8z"/>
	<path d="M526,782.3l-1.6-1.3c37.7-45.2,67.1-96.1,87.5-151.3l1.9,0.7C593.4,685.8,563.8,736.9,526,782.3z"/>
	<path d="M333,741.9c-6,0-12.2-0.7-18.4-2.2c-14.9-3.5-29.9-10.9-47.1-23.2l1.2-1.7c17,12.2,31.7,19.4,46.4,22.9
		c18.2,4.3,36.4,2,50-6.2l1.1,1.8C356.7,739,345.2,741.9,333,741.9z"/>
	<path d="M420.6,467.1l-1.9-0.9c14.9-31,33.4-60.2,54.9-86.9l1.6,1.3C453.8,407.2,435.4,436.3,420.6,467.1z"/>
	<path d="M553.7,352.2c-28.1-21.6-42.1-59.3-34.9-94l2,0.4c-7.1,33.9,6.6,70.8,34.1,91.9L553.7,352.2z"/>
	<path d="M549.3,380.1c-13.4-3.4-26.1-10-36.7-19.1l1.3-1.6c10.3,8.8,22.7,15.3,35.8,18.6L549.3,380.1z"/>
	<path d="M648.2,496.2c-12.5-3.5-22.2-15.8-26-32.9c-1.6-7.4-2.2-15.1-2.8-22.5c-0.5-6.6-1-13.5-2.3-20.1l2-0.4
		c1.3,6.7,1.8,13.7,2.3,20.4c0.5,7.3,1.1,14.9,2.7,22.2c2.8,12.6,10.7,27.4,24.6,31.3L648.2,496.2z"/>
	<path d="M616.3,521.5c-7.7-0.3-15.7-0.6-23.3-3.1c-8.6-2.9-15-8.5-17.8-15.3l1.9-0.8c2.5,6.3,8.5,11.4,16.5,14.1
		c7.3,2.5,15.1,2.7,22.7,3L616.3,521.5z"/>
	<path d="M696.3,532.3c-1-26.5-3.3-53.3-6.6-79.6l2.1-0.3c3.4,26.4,5.6,53.2,6.6,79.8L696.3,532.3z"/>
	<path d="M671.4,346.2l-2-0.6c3.1-11,6.5-23.5,15-32.6c6.3-6.8,15-11.1,22.6-14.9l20.3-10.1l0.9,1.9L708,300
		c-7.9,3.9-16,7.9-22,14.4C677.8,323.2,674.4,335.4,671.4,346.2z"/>
</svg>
