<?xml version="1.0" encoding="utf-8"?>
<svg version="1.1" xmlns="http://www.w3.org/2000/svg" xmlns:xlink="http://www.w3.org/1999/xlink" x="0px" y="0px" viewBox="0 0 1024 1024" enable-background:new 0 0 1024 1024;" xml:space="preserve">
  <path d="M481.1,428.4c0.9-1.5,1.9-3,2.9-4.4c1.1-1.4,2.3-2.7,3.5-4c1.3-1.3,2.6-2.4,4-3.5c1.4-1.1,2.9-2.1,4.5-3l2.5-1.4l-1.6,2.5
    c-0.5,0.8-0.5,1.8-0.6,3c0,0.6-0.1,1.3-0.4,1.9c-0.3,0.7-0.7,1.2-1.2,1.6c-1,0.9-2,1.4-3,2c-1,0.6-1.8,1.2-2.4,2
    c-0.6,0.8-1,1.9-1.3,2.9c-0.3,1.1-0.6,2.2-0.9,3.3c-0.3,1.1-0.5,2.2-0.7,3.3c-0.2,1.1-0.4,2.3-0.6,3.4c0-1.1,0-2.3,0.1-3.4
    c0.1-1.1,0.2-2.3,0.4-3.4c0.2-1.1,0.4-2.3,0.7-3.4c0.3-1.1,0.6-2.3,1.3-3.4c0.7-1.1,1.8-1.8,2.7-2.4c1-0.6,1.9-1.2,2.7-1.9
    c0.4-0.4,0.7-0.7,0.8-1.1c0.2-0.4,0.2-0.9,0.3-1.4c0.1-1.1,0.1-2.4,0.8-3.6l1,1c-1.5,0.9-3,1.8-4.4,2.8c-1.4,1-2.8,2.1-4.1,3.2
    c-0.7,0.6-1.3,1.2-1.9,1.8l-1.8,1.9C483.4,425.6,482.2,427,481.1,428.4z"/>
  <path d="M497.4,414.1c0,0,0,0.1,0,0.4c0.1,0.3,0.2,0.6,0.4,1.1c0.4,0.9,0.9,2.3,1.5,3.9c0.6,1.6,1.3,3.5,1.8,5.7
    c0.3,1.1,0.5,2.2,0.5,3.5c0,1.2-0.2,2.4-0.5,3.6c-0.3,1.2-0.7,2.3-1.3,3.4c-0.5,1.1-1.3,2.1-2.3,2.8c-0.4,0.3-1,0.6-1.5,0.8
    c-0.5,0.2-1.1,0.4-1.6,0.5c-1,0.2-2,0.2-2.9,0.2c-1.8,0-3.2-0.1-4.2,0c-1,0.1-1.6,0.2-1.6,0.2s0.1-0.1,0.4-0.1
    c0.3-0.1,0.6-0.2,1.1-0.3c1-0.2,2.5-0.4,4.2-0.6c0.9-0.1,1.8-0.2,2.7-0.5c0.5-0.1,0.9-0.3,1.3-0.5c0.4-0.2,0.8-0.4,1.2-0.8
    c0.7-0.6,1.3-1.5,1.7-2.4c0.5-1,0.8-2,1.1-3.1c0.3-1.1,0.5-2.2,0.5-3.2c0.1-1.1-0.1-2.1-0.3-3.1c-0.4-2.1-0.9-4-1.4-5.7
    c-0.4-1.7-0.8-3.1-1-4.1c-0.1-0.5-0.2-0.9-0.2-1.2C497.4,414.3,497.4,414.1,497.4,414.1z"/>
  <path d="M481.4,427.4c0,0-0.5-0.1-1.4-0.4c-0.9-0.2-2.2-0.5-3.7-0.8c-0.8-0.2-1.6-0.2-2.5-0.3c-0.9-0.1-1.8-0.1-2.8-0.2
    c-1.9-0.1-4-0.1-6.1,0.1c-1,0.1-2.1,0.2-3.1,0.3c-1,0.1-2,0.3-2.9,0.5c-0.9,0.2-1.8,0.5-2.7,0.7c-0.8,0.3-1.6,0.5-2.3,0.9
    c-0.7,0.3-1.4,0.6-1.9,0.9c-0.6,0.3-1.1,0.5-1.4,0.8c-0.8,0.5-1.2,0.8-1.2,0.8s0.4-0.4,1.1-1c0.3-0.3,0.8-0.6,1.3-1
    c0.5-0.4,1.1-0.8,1.8-1.2c0.7-0.4,1.5-0.7,2.3-1.1c0.9-0.3,1.8-0.7,2.7-0.9c1-0.3,2-0.5,3-0.7c1-0.2,2.1-0.3,3.2-0.4
    c1.1,0,2.1-0.1,3.2-0.1c1.1,0,2.1,0.1,3.1,0.2c2,0.2,3.8,0.6,5.4,1c0.8,0.2,1.5,0.4,2.1,0.7c0.6,0.2,1.1,0.4,1.5,0.6
    C480.9,427.2,481.4,427.4,481.4,427.4z"/>
  <path d="M448.7,430.2c0,0-0.1,0-0.3-0.1c-0.2,0-0.5-0.1-0.9-0.2c-0.7-0.2-1.8-0.5-3-1c-1.2-0.5-2.6-1.2-4-1.9
    c-0.7-0.3-1.5-0.6-2.2-0.9c-0.4-0.1-0.8-0.2-1.2-0.4c-0.4-0.1-0.8-0.2-1.2-0.3c-3.3-0.7-6.8-0.9-9.3-1.1c-2.6-0.2-4.3-0.3-4.3-0.3
    s1.7-0.4,4.3-0.6c2.6-0.2,6.1-0.2,9.6,0.5c0.4,0.1,0.9,0.2,1.3,0.3c0.4,0.1,0.8,0.3,1.3,0.4c0.8,0.3,1.6,0.7,2.3,1.1
    c1.5,0.8,2.7,1.6,3.8,2.3c1.1,0.7,2,1.2,2.7,1.5C448.3,430.1,448.7,430.2,448.7,430.2z"/>
  <path d="M423,424.8c0,0,1.7,0.9,4.4,1.7c0.7,0.2,1.4,0.4,2.1,0.5c0.7,0.1,1.6,0.1,2.5,0.2c0.9,0.1,1.8,0.1,2.8,0.4
    c0.2,0.1,0.5,0.1,0.8,0.3c0.1,0,0.2,0.1,0.2,0.1c0,0,0.1,0,0.1,0.1l0.1,0.1c0.1,0.1,0.2,0.2,0.3,0.3c0.4,0.5,0.7,1,0.9,1.5
    c0.4,1,0.5,1.9,0.8,2.7c0.3,0.8,0.7,1.5,1.3,2.1c1.1,1.3,2.4,2.1,3.6,2.6c0.6,0.2,1.2,0.4,1.8,0.5c0.5,0.1,1,0.1,1.4,0.1
    c0.4,0,0.7,0,0.9,0c0.2,0,0.3,0,0.3,0c0,0-0.4,0.2-1.3,0.4c-0.4,0.1-0.9,0.1-1.5,0.1c-0.6,0-1.3-0.1-2-0.2
    c-0.7-0.2-1.5-0.5-2.2-0.9c-0.7-0.4-1.5-1-2.1-1.7c-0.6-0.7-1.2-1.5-1.6-2.5c-0.4-0.9-0.5-1.9-0.9-2.7c-0.1-0.4-0.3-0.7-0.5-1
    c0,0-0.1-0.1-0.2-0.2l-0.1-0.1c0,0,0,0,0,0c0,0,0,0-0.1,0c-0.1-0.1-0.3-0.1-0.5-0.2c-0.8-0.2-1.7-0.4-2.6-0.5
    c-0.9-0.1-1.7-0.2-2.6-0.4c-0.8-0.2-1.5-0.5-2.2-0.8c-1.3-0.6-2.3-1.2-3-1.7C423.3,425.1,423,424.8,423,424.8z"/>
  <path d="M443.1,446.3c0,0-0.5,0.2-1.4,0.5c-0.9,0.2-2.3,0.6-4,0.7c-0.8,0-1.8-0.1-2.8-0.4c-0.9-0.3-1.9-0.8-2.8-1.3
    c-0.2-0.2-0.4-0.2-0.7-0.5l-0.6-0.5c-0.4-0.3-0.8-0.8-1.2-1.2c-0.7-0.9-1.3-1.8-1.9-2.8c-1-2-1.8-4.1-2.4-6.1
    c-0.6-2-1.1-3.8-1.5-5.4c-0.2-0.8-0.4-1.5-0.6-2.2c-0.2-0.6-0.4-1.2-0.5-1.6c-0.2-0.4-0.3-0.8-0.5-1c-0.1-0.2-0.2-0.3-0.2-0.3
    c0,0,0.4,0.3,0.9,1.2c0.5,0.9,1,2.1,1.6,3.7c0.6,1.5,1.2,3.3,1.9,5.3c0.7,1.9,1.5,3.9,2.5,5.8c0.5,0.9,1.1,1.8,1.7,2.6
    c0.4,0.3,0.6,0.7,1,1.1l0.6,0.5c0.1,0.1,0.4,0.3,0.6,0.4c0.8,0.6,1.6,1.1,2.4,1.4c0.8,0.3,1.6,0.5,2.4,0.6c1.6,0.1,2.9,0,3.9-0.1
    C442.5,446.4,443.1,446.3,443.1,446.3z"/>
  <path d="M442.9,446.5c0,0-0.2,0.5-0.4,1.4c-0.3,0.9-0.5,2.2-0.7,3.8c-0.2,1.6-0.4,3.4-0.5,5.4c0,1,0,2,0.1,3
    c0.1,1,0.2,2.1,0.4,3.1c0.2,1,0.6,1.9,1.1,2.8c0.5,0.9,1.1,1.7,1.8,2.1c0.9,0.5,1.7,1,2.5,1.3c0.8,0.3,1.6,0.5,2.4,0.6
    c1.5,0.1,2.9-0.1,3.9,0.1c0.5,0.1,0.8,0.2,1.1,0.3c0.2,0.1,0.4,0.2,0.4,0.2s-0.1,0-0.4-0.1c-0.2-0.1-0.6-0.1-1.1-0.1
    c-0.5,0-1,0.1-1.7,0.2c-0.6,0.1-1.4,0.3-2.3,0.3c-0.9,0-1.8-0.1-2.7-0.4c-0.9-0.3-1.9-0.7-2.8-1.2c-1.1-0.6-1.8-1.6-2.4-2.5
    c-0.6-1-1-2.1-1.3-3.2c-0.2-1.1-0.4-2.2-0.4-3.3c-0.1-1.1,0-2.2,0.1-3.2c0.2-2.1,0.5-3.9,0.9-5.5c0.4-1.6,0.9-2.9,1.3-3.7
    c0.2-0.4,0.4-0.8,0.5-1C442.9,446.6,442.9,446.5,442.9,446.5z"/>
  <path d="M446,454.5c0,0,0.2,0.5,0.6,1.4c0.4,0.9,0.9,2.1,1.7,3.6c1.5,2.9,3.9,6.6,6.9,9.7c1.5,1.6,3.1,3,4.8,4.1
    c1.7,1.1,3.3,2,4.8,2.5c0.8,0.3,1.5,0.4,2.1,0.5c0.3,0,0.6,0,0.9,0c0.3-0.1,0.5-0.1,0.7-0.2c0.2-0.1,0.4-0.2,0.6-0.2
    c0.2-0.1,0.3-0.2,0.4-0.3c0.2-0.1,0.3-0.2,0.3-0.2s-0.1,0.1-0.3,0.3c-0.2,0.2-0.5,0.5-0.9,0.7c-0.2,0.1-0.5,0.2-0.8,0.3
    c-0.3,0.1-0.6,0.1-1,0.2c-0.7,0-1.5,0-2.3-0.2c-1.7-0.4-3.5-1.2-5.3-2.3c-0.9-0.6-1.8-1.2-2.7-1.9c-0.9-0.7-1.7-1.5-2.4-2.3
    c-1.5-1.6-2.9-3.4-4-5.2c-1.1-1.8-2-3.6-2.6-5.1c-0.6-1.6-1-2.9-1.2-3.9C446.1,455.1,446,454.5,446,454.5z"/>
  <path d="M483.1,458.4c0,0-0.1,0.4-0.3,1.2c-0.2,0.8-0.4,1.8-0.6,3.2c-0.2,1.3-0.4,2.9-0.8,4.5c-0.4,1.7-0.9,3.4-1.9,5.1
    c-0.5,0.8-1,1.6-1.6,2.3c-0.6,0.7-1.4,1.3-2.2,1.7c-0.8,0.4-1.7,0.7-2.6,0.7c-0.9,0-1.7-0.3-2.3-0.8c-0.6-0.5-1-1-1.2-1.6
    c-0.2-0.5-0.4-1-0.5-1.4c-0.1-0.4-0.1-0.7-0.1-0.9c0-0.2,0-0.3,0-0.3s0.1,0.4,0.4,1.1c0.3,0.7,0.8,1.7,1.9,2.3
    c0.5,0.3,1.1,0.4,1.8,0.4c0.6,0,1.3-0.3,2-0.7c0.6-0.4,1.2-0.9,1.8-1.6c0.5-0.6,1-1.3,1.4-2c1.7-3,2.3-6.5,3.2-9
    c0.4-1.3,0.8-2.3,1.1-3.1C482.9,458.8,483.1,458.4,483.1,458.4z"/>
  <path d="M464.3,469.8c0,0,0.2-0.1,0.5-0.1c0.3,0,0.8,0,1.3,0.2c0.3,0.1,0.5,0.2,0.8,0.3c0.2,0.1,0.6,0.2,0.8,0.2l0.5,0.1
    c0.1,0,0.2,0,0.4,0c0.3,0,0.6,0,0.8,0c1.1-0.1,2.4-0.5,3.3-0.8c0.9-0.3,1.7-0.4,1.7-0.4s-0.4,0.6-1.3,1.2
    c-0.8,0.6-2.1,1.4-3.6,1.5c-0.4,0-0.8,0-1.1-0.1c-0.2,0-0.4-0.1-0.6-0.1l-0.5-0.2c-0.4-0.2-0.6-0.3-0.9-0.5
    c-0.2-0.2-0.5-0.3-0.7-0.5c-0.4-0.3-0.7-0.5-1-0.7C464.4,469.9,464.3,469.8,464.3,469.8z"/>
  <path d="M479.1,471.7c0,0,0.2-0.2,0.7-0.5c0.4-0.3,1-0.8,1.7-1.4c0.7-0.6,1.5-1.3,2.3-2.1c0.8-0.8,1.7-1.7,2.5-2.6
    c0.4-0.5,0.8-0.9,1.2-1.4c0.4-0.5,0.7-0.9,1.1-1.4c0.7-0.9,1.2-1.8,1.7-2.6c0.4-0.8,0.8-1.5,1-2c0.2-0.5,0.3-0.8,0.3-0.8
    s0,0.3,0,0.9c-0.1,0.6-0.2,1.4-0.5,2.3c-0.3,0.9-0.8,2-1.4,3c-0.3,0.5-0.6,1-1,1.5c-0.4,0.5-0.8,1-1.2,1.5
    c-0.9,0.9-1.8,1.8-2.7,2.6c-0.9,0.7-1.9,1.4-2.7,1.8c-0.8,0.5-1.6,0.8-2.1,1C479.4,471.6,479.1,471.7,479.1,471.7z"/>
  <path d="M448.8,430.4c4.1-5.1,8.3-10.1,12.7-14.9c2.2-2.4,4.6-4.7,7.1-6.8c2.5-2.1,5.3-4,8.3-5.3c3-1.4,6.4-2.1,9.8-1.8
    c3.4,0.3,6.6,1.7,9.3,3.7c2.7,2,5,4.5,6.8,7.3c1.8,2.8,3.2,5.8,4.4,8.9c1.2,3,2.4,6.1,4.1,8.8c1.7,2.7,3.9,5,6.7,6.4
    c2.8,1.5,6,2.5,8.8,4.5c2.8,2,4.9,4.8,6.1,8c1.2,3.2,1.5,6.7,0.7,10c-0.8,3.3-2.4,6.2-3.5,9.2c-0.5,1.5-0.9,3-0.9,4.6
    c0,1.6,0.3,3.1,1,4.5c0.7,1.4,2,2.3,3.4,2.9c0.7,0.3,1.5,0.7,2.2,1.2c0.7,0.5,1.4,1.3,1.5,2.2l0.1,0.4l-0.4,0
    c-2.3,0.3-4.6,0.4-6.9,0.3c-1.1,0-2.3-0.1-3.4-0.2c-0.6-0.1-1.1-0.1-1.7-0.2c-0.6-0.1-1.2-0.4-1.6-0.9c-0.4-0.5-0.6-1.1-0.7-1.7
    l-0.2-1.7c-0.2-1.1-0.4-2.2-0.6-3.3c-0.2-1.1-0.5-2.2-0.8-3.3c-0.2-0.5-0.3-1.1-0.6-1.6c-0.1-0.2-0.3-0.5-0.6-0.6
    c-0.2-0.2-0.6-0.2-0.8,0.1c0.2-0.2,0.5-0.2,0.8-0.1c0.2,0.1,0.4,0.4,0.6,0.6c0.3,0.5,0.4,1.1,0.6,1.6c0.4,1.1,0.7,2.2,1,3.3
    c0.3,1.1,0.5,2.2,0.7,3.3c0.2,1.1,0.2,2.3,0.9,3.1c0.7,0.8,1.9,0.7,3,0.8c1.1,0.1,2.3,0.1,3.4,0.1c2.3,0,4.5-0.2,6.7-0.5l-0.3,0.5
    c-0.2-1.4-1.9-2.1-3.3-2.7c-0.8-0.3-1.5-0.7-2.2-1.2c-0.7-0.5-1.3-1.2-1.7-2c-1.7-3.1-1.5-6.8-0.4-9.9c1-3.2,2.6-6.1,3.3-9.1
    c0.7-3.1,0.4-6.3-0.7-9.2c-1.1-2.9-3.1-5.5-5.7-7.3c-2.5-1.8-5.7-2.8-8.7-4.3c-1.5-0.8-2.9-1.8-4.1-3c-1.2-1.2-2.2-2.6-3.1-4
    c-1.7-2.9-2.9-6-4.1-9c-1.2-3-2.5-6-4.2-8.7c-1.7-2.7-3.9-5.1-6.4-7c-2.6-1.9-5.6-3.2-8.7-3.5c-3.1-0.4-6.3,0.3-9.3,1.5
    c-2.9,1.2-5.7,3-8.2,5c-2.5,2.1-4.9,4.3-7.2,6.6C457.4,420.5,453.1,425.5,448.8,430.4z"/>
  <path d="M503.6,479.3c0,0,0.4-0.2,1.1-0.5c0.7-0.3,1.6-0.8,2.7-1.3c2.2-1.1,5.2-2.6,7.8-4.5c1.3-0.9,2.5-2,3.4-3.2
    c0.9-1.2,1.5-2.5,2.1-3.6c0.6-1.1,1.1-2,1.5-2.7c0.4-0.6,0.7-1,0.7-1s-0.1,0.4-0.4,1.1c-0.3,0.7-0.5,1.7-1,2.9
    c-0.4,1.2-0.9,2.6-1.9,4c-0.5,0.7-1,1.4-1.6,1.9c-0.6,0.6-1.3,1.1-2,1.7c-1.4,1-2.9,1.8-4.3,2.5c-1.4,0.7-2.8,1.2-4,1.6
    C505.2,479,503.6,479.3,503.6,479.3z"/>
  <path d="M503,450.8c1.5,1.5,2.9,3.1,4.1,4.8c0.6,0.9,1.2,1.8,1.6,2.8c0.4,1,0.7,2.1,0.9,3.1c0.3,2.2,0,4.4-0.6,6.5
    c-0.6,2.1-1.5,4.1-2.5,6c-1,1.9-2,3.7-3,5.6c-0.5,0.9-0.9,1.9-1.2,2.9c-0.2,0.5-0.3,1-0.5,1.5c-0.1,0.5-0.3,1-0.3,1.3
    c0,0.2,0,0.2,0.1,0.3c0,0,0.1,0.1,0.3,0.1c0.3,0,0.8-0.1,1.4-0.2c0.1,0,0.3,0,0.5-0.1c0.1,0,0.3,0,0.5,0c0.4,0,0.7,0.1,1,0.2
    c0.6,0.2,1.2,0.6,1.6,1c0.4,0.5,0.8,1.1,0.8,1.9l0,0.3l0,0.3c0,0.1-0.1,0.4-0.1,0.6c-0.1,0.3-0.3,0.7-0.6,0.9
    c-0.5,0.5-1.1,0.8-1.8,1c-0.7,0.1-1.6-0.1-2.1-0.7l-4.1-4.5l5.1,3.3c0.3,0.2,0.7,0.5,1,0.8c0.2,0.1,0.3,0.3,0.5,0.5
    c0.1,0.2,0.3,0.5,0.3,0.8c0.1,0.3,0,0.7-0.1,1c-0.2,0.3-0.4,0.5-0.6,0.7c-0.4,0.3-0.8,0.5-1.3,0.6c-0.2,0-0.5,0.1-0.8,0.1
    c-0.4,0-0.5-0.1-0.7-0.1l-1.1-0.3c-0.4-0.1-0.7-0.2-1.1-0.4c-0.4-0.1-0.7-0.3-1.2-0.6l0.7-1.2c0.8,0.5,1.2,1.3,1.4,2.1
    c0,0.4,0,0.9-0.2,1.4c-0.1,0.2-0.3,0.5-0.6,0.6c-0.1,0.1-0.2,0.1-0.4,0.2l-0.1,0l-0.1,0l-0.1,0c-0.2,0-0.5,0-0.7,0
    c-0.2-0.1-0.4-0.1-0.6-0.2c-0.4-0.2-0.7-0.4-1-0.7c-0.5-0.5-0.9-1.1-1.3-1.7l0.8,0.3c-1.2,0.4-2.4,0.9-3.7,1.2
    c-0.3,0.1-0.6,0.2-1,0.3c-0.2,0-0.3,0.1-0.5,0.1c-0.2,0-0.4,0.1-0.8,0c-0.2-0.1-0.5-0.4-0.5-0.7c0-0.2,0-0.4,0.1-0.5
    c0.1-0.2,0.2-0.4,0.3-0.5c0.2-0.3,0.4-0.6,0.5-0.8c1.4-2.1,2.7-4.3,3.4-6.7c0.4-1.2,0.6-2.4,0.8-3.7c0.2-1.3,0.4-2.5,0.5-3.8
    c0.2-2.5,0.2-5.1-0.4-7.7c0.7,2.5,0.9,5.1,0.8,7.7c0,1.3-0.1,2.6-0.3,3.9c-0.1,1.3-0.3,2.6-0.7,3.9c-0.7,2.5-1.9,4.9-3.3,7.1
    c-0.2,0.3-0.3,0.5-0.5,0.8c-0.1,0.1-0.1,0.3-0.2,0.3c0,0.1,0,0,0,0c0-0.1-0.1-0.3-0.2-0.3c-0.1,0,0.3,0,0.6-0.1
    c0.3-0.1,0.6-0.2,0.9-0.3l3.6-1.3l0.5-0.2l0.3,0.5c0.3,0.5,0.7,1,1.1,1.4c0.2,0.2,0.4,0.4,0.6,0.5c0.1,0.1,0.2,0.1,0.3,0.1
    c0.1,0,0.1,0,0.3,0l0.1,0c0,0,0.1,0,0,0l0,0c0,0,0.1,0,0.1,0c0,0,0.1-0.1,0.1-0.1c0.1-0.1,0.1-0.3,0.1-0.5
    c-0.1-0.4-0.3-0.9-0.7-1.1l0.7-1.2c0.2,0.1,0.5,0.3,0.9,0.4c0.3,0.1,0.7,0.2,1,0.3l1.1,0.3c0.1,0,0.4,0.1,0.4,0.1
    c0.1,0,0.2,0,0.4,0c0.3-0.1,0.6-0.2,0.7-0.3c0.1-0.1,0.1-0.1,0.2-0.2c0,0,0,0,0-0.1c0,0-0.1-0.1-0.1-0.2c-0.1-0.1-0.2-0.2-0.3-0.3
    c-0.2-0.2-0.5-0.4-0.8-0.6l0.9-1.1c0.3,0.4,1.3,0.3,1.8-0.3c0.5-0.5,0.4-1.3-0.1-1.9c-0.3-0.3-0.6-0.5-1-0.7
    c-0.2-0.1-0.4-0.1-0.6-0.1c-0.1,0-0.2,0-0.3,0c-0.1,0-0.2,0-0.3,0c-0.5,0.1-1,0.2-1.8,0.2c-0.4-0.1-0.8-0.2-1.2-0.6
    c-0.2-0.2-0.5-0.8-0.5-1.1c0-0.8,0.2-1.3,0.3-1.8c0.2-0.5,0.3-1,0.5-1.5c0.4-1,0.8-2,1.3-3c1-1.9,2.1-3.7,3.1-5.6
    c1-1.8,1.9-3.7,2.6-5.7c0.6-2,1-4,0.8-6.1c-0.1-1.1-0.3-2-0.7-3c-0.4-1-0.8-1.9-1.4-2.8C505.7,454.1,504.4,452.4,503,450.8z"/>
  <path d="M495.1,481.6c0,0-0.7,0.4-1.8,1c-0.6,0.3-1.4,0.6-2.2,0.9c-0.9,0.3-1.9,0.7-3,0.9c-1.1,0.3-2.3,0.5-3.6,0.8
    c-1.3,0.2-2.7,0.5-4.1,0.6c-1.4,0.2-2.9,0.2-4.4,0.3c-1.5,0-3.1,0-4.6-0.1c-1.5-0.1-3.1-0.2-4.6-0.5c-0.8-0.1-1.5-0.2-2.2-0.4
    c-0.7-0.1-1.5-0.3-2.2-0.4c-1.4-0.3-2.8-0.7-4-1.1c-1.3-0.5-2.4-0.9-3.5-1.2c-2.2-0.6-4-1-5.3-1.2c-1.3-0.2-2.1-0.3-2.1-0.3
    s0.8-0.1,2.1,0c1.3,0.1,3.3,0.2,5.5,0.7c0.6,0.1,1.2,0.3,1.8,0.5c0.6,0.2,1.2,0.3,1.8,0.5c1.3,0.3,2.6,0.6,4,0.9
    c1.4,0.3,2.8,0.5,4.3,0.7c1.5,0.2,3,0.3,4.5,0.4c1.5,0.1,3,0.1,4.5,0.1c1.5,0,2.9,0,4.4-0.1c1.4-0.1,2.8-0.2,4.1-0.3
    c1.3-0.2,2.5-0.3,3.6-0.6c1.1-0.2,2.1-0.5,3-0.7c0.9-0.2,1.6-0.5,2.3-0.7C494.4,481.8,495.1,481.6,495.1,481.6z"/>
  <path d="M446.8,479.6l0.3,5.8c0,1,0.1,1.9,0.1,2.9c0,1-0.5,2-1.2,2.8c-0.7,0.8-1.5,1.4-2.2,1.9l-2.3,1.7c-0.8,0.6-1.5,1.1-2.3,1.7
    c-0.8,0.5-1.8,1.1-3,1.1l-0.4,0l-0.1-0.4c-0.3-1.6,0.4-3.3,1.7-4.1l0.6,1.1l-7.5,3.9l-0.8,0.4l-0.2-0.8c-0.4-1.9,0.7-3.9,2.5-4.5
    l0.4,1.3l-5.1,1.5l-2,0.6l1.3-1.7c1.4-1.9,3.4-3.3,5.6-3.9l-0.3,1.2l-1.1-1l-1.1-1l1.4-0.3c0.9-0.2,1.8-0.4,2.6-0.7
    c0.8-0.3,1.6-0.7,2.1-1.3c0.5-0.6,0.8-1.3,0.8-2.1c0-0.8-0.4-1.7-0.6-2.6c-1.1-3.6-2-7.4-2.2-11.2c-0.1-1.9,0-3.9,0.4-5.8
    c0.2-0.9,0.4-1.9,0.8-2.8c0.3-0.9,0.7-1.8,1.2-2.6c0.9-1.7,2-3.2,3-4.8c0.9-1.6,1.8-3.3,2-5.2c-0.1,1.9-0.8,3.7-1.7,5.4
    c-0.9,1.7-1.9,3.3-2.7,5c-0.4,0.8-0.7,1.7-1,2.6c-0.3,0.9-0.5,1.8-0.6,2.7c-0.3,1.8-0.3,3.7-0.2,5.5c0.2,1.9,0.5,3.7,0.9,5.5
    c0.4,1.8,0.9,3.6,1.5,5.4c0.3,0.9,0.6,1.8,0.7,2.9c0.1,1.1-0.3,2.3-1.1,3.1c-0.8,0.8-1.7,1.3-2.6,1.7c-0.9,0.4-1.9,0.6-2.9,0.8
    l0.3-1.3l1.2,1.1l0.9,0.8l-1.2,0.4c-1.9,0.6-3.7,1.7-4.9,3.4l-0.8-1.1l5.1-1.4l0.4,1.3c-1.1,0.3-1.9,1.7-1.6,2.9l-1-0.4l7.5-3.8
    l0.6,1.1c-0.9,0.5-1.5,1.8-1.3,2.9l-0.5-0.4c0.8,0,1.6-0.3,2.4-0.8c0.8-0.5,1.6-1.1,2.4-1.6l2.4-1.6c0.8-0.5,1.6-1.1,2.2-1.7
    c0.6-0.7,1-1.5,1.1-2.4c0.1-0.9,0.1-1.9,0.1-2.9L446.8,479.6z"/>
  <path d="M612.8,475.7c0,0-0.9,0.1-2.7,0.2c-1.8,0.1-4.4,0.3-7.7,0.7c-6.6,0.8-16,2.4-26.6,6.5c-5.2,2.1-11,4.7-15.3,9.5
    c-2.1,2.4-3.8,5.3-4.6,8.5c-0.1,0.4-0.2,0.8-0.2,1.2c-0.1,0.4-0.1,0.8,0,0.9c0,0,0.1,0.1,0,0c0,0,0.1,0.1,0.1,0.1c0,0-0.1,0-0.1,0
    c0,0,0,0,0.1-0.1c0.2-0.2,0.4-0.5,0.6-0.8c0.3-0.7,0.5-1.6,1-2.5c0.4-0.8,0.9-1.6,1.4-2.4c2.2-3,5.4-5.2,8.6-6.9
    c3.3-1.7,6.8-3.1,10.3-4.4c7.1-2.5,14.6-4.3,22.2-5.2c3.8-0.5,7.6-0.7,11.4-0.9c1.9-0.1,3.8-0.3,5.6-0.5c0.9-0.1,1.9-0.2,2.8-0.3
    c0.9-0.1,1.9-0.2,2.7-0.5c0.8-0.2,1.4-0.7,1.5-1.3c0.2-0.6-0.1-1.4-0.6-1.9c-1.1-1.1-3-1.5-4.7-2c-3.5-1-7-1.8-10.5-2.4
    c-7-1.2-13.8-2-20.3-2.7c-6.5-0.6-12.6-1.2-18.3-1.8c-5.7-0.6-10.9-1.4-15.4-2.3c-4.5-1-8.4-2.1-11.5-3.4c-3.1-1.3-5.3-2.8-6.6-4
    c-0.7-0.6-1.1-1.1-1.5-1.4c-0.3-0.3-0.5-0.5-0.5-0.5s0.2,0.2,0.5,0.5c0.3,0.3,0.8,0.8,1.5,1.4c1.4,1.1,3.6,2.6,6.7,3.8
    c3.1,1.2,7,2.3,11.5,3.1c4.5,0.8,9.7,1.5,15.4,2c5.7,0.6,11.8,1,18.3,1.6c6.5,0.6,13.4,1.2,20.4,2.5c3.5,0.6,7.1,1.4,10.6,2.4
    c0.9,0.3,1.8,0.5,2.7,0.8c0.9,0.3,1.9,0.7,2.6,1.5c0.8,0.8,1.3,1.9,1,3.2c-0.1,0.6-0.5,1.2-1,1.5c-0.5,0.4-1,0.6-1.5,0.7
    c-7.6,1.6-15.1,1.4-22.7,2.4c-7.5,0.9-14.9,2.6-21.9,5c-3.5,1.2-7,2.6-10.2,4.2c-3.2,1.7-6.1,3.7-8.2,6.5c-0.5,0.7-1,1.4-1.3,2.2
    c-0.4,0.7-0.6,1.5-1,2.4c-0.2,0.5-0.5,0.9-1,1.3c-0.2,0.2-0.6,0.4-1.1,0.3c-0.1,0-0.3-0.1-0.4-0.1c-0.1-0.1-0.1-0.1-0.2-0.1
    c-0.2-0.2-0.3-0.3-0.4-0.5c-0.3-0.7-0.1-1.2,0-1.6c0.1-0.4,0.2-0.9,0.3-1.3c0.9-3.5,2.7-6.5,5-9c2.3-2.5,4.9-4.4,7.6-5.9
    c2.7-1.5,5.5-2.6,8.2-3.7c5.4-2,10.5-3.3,15-4.2c4.6-0.9,8.6-1.4,11.9-1.7c3.3-0.3,5.9-0.4,7.7-0.5
    C611.9,475.7,612.8,475.7,612.8,475.7z"/>
  <path d="M608.8,476c0,0-4.9-0.4-12.3-1.1c-3.7-0.3-8-0.6-12.6-0.9c-4.6-0.2-9.6-0.4-14.5-0.6c-5-0.2-9.9-0.5-14.5-0.8
    c-4.6-0.3-9-0.8-12.7-1.2c-3.7-0.4-6.8-1-8.9-1.3c-2.1-0.4-3.3-0.6-3.3-0.6s1.2,0.1,3.4,0.4c2.2,0.2,5.2,0.5,8.9,0.8
    c3.7,0.3,8,0.5,12.7,0.8c4.6,0.3,9.6,0.5,14.5,0.6c5,0.3,9.9,0.5,14.5,0.8c4.7,0.3,9,0.9,12.7,1.3c3.7,0.5,6.7,1,8.9,1.3
    C607.6,475.7,608.8,476,608.8,476z"/>
  <path d="M479.1,450c0,0,0.1-0.1,0.3-0.4c0.2-0.3,0.4-0.7,0.6-1.1c0.1-0.2,0.1-0.5,0.1-0.6c0-0.2-0.2-0.3-0.2-0.3l0,0c0,0,0,0,0,0
    l-0.1,0c0,0,0,0,0,0c0,0-0.1,0.1-0.1,0.1c-0.1,0.1-0.2,0.3-0.2,0.6c-0.1,0.3-0.1,0.7-0.1,1.1c0,0.4-0.2,0.8-0.3,1.1
    c-0.2,0.7-0.6,1.4-1.1,1.8c-0.4,0.5-0.9,0.7-1.2,0.8c-0.3,0.1-0.5,0.1-0.5,0.1s0.6-0.5,1.1-1.5c0.2-0.5,0.4-1,0.5-1.7
    c0.1-0.3,0.1-0.6,0.1-1c0-0.3,0-0.7,0.1-1.1c0.1-0.4,0.3-1,0.7-1.4c0.2-0.2,0.5-0.3,0.8-0.4c0.2,0,0.3,0,0.5,0l0.1,0
    c0.1,0,0.1,0,0.2,0c0.1,0,0.2,0.1,0.2,0.1c0.6,0.4,0.7,0.9,0.7,1.4c0,0.5-0.2,0.8-0.4,1.1c-0.4,0.5-0.8,0.8-1.2,0.9
    C479.3,450,479.1,450,479.1,450z"/>
  <path d="M454.8,451.3c0,0-0.2,0.2-0.8,0.3c-0.3,0-0.6,0.1-1,0c-0.4-0.1-0.8-0.3-1.2-0.6c-0.4-0.3-0.7-0.8-0.9-1.3
    c-0.2-0.5-0.3-1.2,0.1-2c0.2-0.3,0.6-0.8,1.2-0.8c0.6,0,1,0.3,1.3,0.5c0.5,0.6,0.7,1,1.1,1.4c0.7,0.9,1.4,1.8,2,2.6
    c0.3,0.4,0.7,0.8,1,1.1c0.3,0.3,0.6,0.5,0.9,0.7c0.7,0.3,1.4,0.3,1.9,0.3c0.5,0,0.8,0,0.8,0s-0.3,0.1-0.7,0.3
    c-0.5,0.2-1.2,0.4-2.2,0.3c-0.5-0.1-1-0.3-1.4-0.7c-0.4-0.3-0.8-0.7-1.2-1.1c-0.8-0.8-1.5-1.7-2.3-2.6c-0.3-0.4-0.7-1-0.9-1.3
    c-0.1-0.1-0.2-0.2-0.2-0.2c0,0,0,0-0.1,0.1c-0.2,0.2-0.2,0.6-0.1,1c0.1,0.4,0.2,0.7,0.5,1c0.4,0.6,1.1,0.8,1.6,0.9
    C454.5,451.4,454.8,451.3,454.8,451.3z"/>
  <path d="M445.8,448.8c0,0,0.1,0.5,0.3,1.4c0.2,0.9,0.5,2.1,1,3.5c0.9,2.9,2.5,6.6,4.3,10.2c0.9,1.8,1.9,3.6,2.7,5.3
    c0.9,1.7,1.7,3.2,2.7,4.3c0.9,1.1,1.9,1.9,2.7,2.2c0.4,0.2,0.7,0.3,1,0.3c0.2,0.1,0.4,0.1,0.4,0.1s-0.1,0-0.4,0
    c-0.2,0-0.6,0-1-0.1c-0.9-0.2-2.1-0.8-3.3-1.9c-1.2-1.1-2.2-2.6-3.2-4.3c-1-1.6-2-3.4-2.9-5.3c-0.5-0.9-0.9-1.8-1.3-2.8
    c-0.4-0.9-0.8-1.9-1.1-2.8c-0.7-1.8-1.1-3.6-1.4-5.1c-0.3-1.5-0.4-2.8-0.4-3.7C445.8,449.3,445.8,448.8,445.8,448.8z"/>
  <path d="M485.2,428.3c0,0-0.7-0.3-2.1-0.6c-1.4-0.4-3.5-0.9-6.2-1.2c-2.7-0.3-6-0.5-9.7,0c-3.7,0.5-7.8,1.8-11.7,4.3
    c-3.8,2.5-7.4,6.3-9.1,11.3c-1.7,4.9-1.4,10.7-0.1,16.2c0.7,2.8,1.7,5.5,3.3,8c0.8,1.2,1.7,2.3,2.8,3.3c0.3,0.2,0.6,0.5,0.8,0.7
    c0.3,0.2,0.6,0.5,0.9,0.7c0.6,0.4,1.2,0.8,1.9,1.1c2.7,1.3,5.6,1.9,8.7,2.1c3,0.2,6.1,0,9.1-0.5c3-0.5,6-1.2,8.8-2.3
    c1.4-0.6,2.7-1.2,3.9-2.1c1.2-0.9,2.2-1.9,3.1-3.1c3.6-4.7,4.7-11,3.4-16.5c-1.3-5.5-5-10-8.9-13.5c-1.9-1.8-3.9-3.4-5.9-5
    c-1-0.8-1.9-1.5-3-2c-1.1-0.4-2.2-0.8-3.3-1.1c-2.2-0.7-4.4-1.5-6.3-1.8c-1,0-2,0.2-3,0.3c-1,0.2-1.9,0.4-2.8,0.7
    c-3.6,1-6.5,2.6-8.8,4.1c-2.2,1.5-3.8,3-4.8,4c-0.5,0.5-0.9,0.9-1.1,1.2c-0.3,0.3-0.4,0.4-0.4,0.4s0.1-0.1,0.4-0.4
    c0.2-0.3,0.6-0.7,1.1-1.3c1-1.1,2.5-2.6,4.7-4.2c2.2-1.6,5.1-3.2,8.8-4.4c0.9-0.3,1.9-0.5,2.9-0.8c1-0.2,2-0.4,3.1-0.4
    c2.2,0.2,4.3,1.1,6.6,1.7c1.1,0.3,2.3,0.6,3.4,1.1c1.2,0.5,2.2,1.3,3.2,2c2,1.5,4,3.1,6,5c2,1.8,3.9,3.8,5.6,6.1
    c1.7,2.3,3,5,3.8,7.9c1.4,5.8,0.3,12.5-3.5,17.6c-1,1.3-2.1,2.4-3.4,3.4c-1.3,1-2.7,1.7-4.2,2.3c-2.9,1.2-6,1.9-9.1,2.4
    c-3.1,0.5-6.3,0.6-9.4,0.4c-3.1-0.2-6.3-0.9-9.2-2.3c-2.9-1.4-5.3-3.6-6.9-6.3c-1.6-2.6-2.7-5.5-3.4-8.4
    c-1.4-5.7-1.6-11.7,0.3-16.9c1.9-5.2,5.7-9.1,9.6-11.6c4-2.6,8.3-3.7,12.1-4.2c3.8-0.4,7.1-0.2,9.8,0.3c2.7,0.4,4.8,1,6.1,1.5
    C484.5,428.1,485.2,428.3,485.2,428.3z"/>
  <path d="M447.5,429.5c-2.2-0.6-4.3-1.2-6.5-1.8c-2.2-0.6-4.3-1.2-6.4-1.9c-2.1-0.6-4.3-1.3-6.4-1.7c-2.1-0.4-4.3-0.4-6.1,0.4
    l0.4-0.9c1.1,2.9,2.1,5.7,3.1,8.6c1.1,2.9,2,5.8,3.2,8.5c1.2,2.7,2.7,5.4,4.9,7.4c1.1,1,2.3,1.9,3.6,2.6c1.3,0.7,2.8,1.1,4.3,1.3
    c-3.1,0.1-6.1-1.3-8.5-3.3c-2.4-2-4.1-4.7-5.5-7.5c-1.3-2.8-2.4-5.7-3.4-8.5c-1.1-2.8-2.1-5.7-3.1-8.6l-0.2-0.6l0.6-0.3
    c1.1-0.5,2.3-0.7,3.5-0.8c1.2,0,2.4,0.1,3.5,0.4c2.3,0.5,4.3,1.3,6.4,2c2.1,0.8,4.2,1.5,6.3,2.2
    C443.3,427.9,445.4,428.7,447.5,429.5z"/>
  <path d="M443.7,471.4c-0.3-0.2-0.4-0.8,0-1.1l0.1-0.1l0.1,0.2c0.9,1.5,1.6,3,2.4,4.6c0.7,1.6,1.4,3.1,1.9,4.9
    c0.5,1.7,0.7,3.6,0.5,5.3c-0.2,1.8-0.8,3.5-1.8,4.9c0.4-1.7,0.7-3.3,0.7-5c0-0.8-0.1-1.6-0.2-2.4c-0.1-0.8-0.3-1.6-0.6-2.4
    c-0.5-1.6-1.1-3.2-1.7-4.8c-0.6-1.6-1.1-3.3-1.6-4.9l0.2,0.1C443.6,470.7,443.4,471.1,443.7,471.4z"/>
  <path d="M446.2,467.5c0,0,0.3,0.9,0.6,2.1c0.3,1.2,0.8,2.8,1.4,4.3c0.6,1.5,1.2,3.1,1.8,4.2c0.5,1.1,0.9,2,0.9,2s-0.7-0.5-1.6-1.5
    c-0.4-0.5-0.9-1.1-1.3-1.8c-0.4-0.7-0.8-1.5-1.1-2.3c-0.3-0.8-0.5-1.7-0.7-2.5c-0.1-0.8-0.2-1.6-0.2-2.2
    C445.9,468.3,446.2,467.5,446.2,467.5z"/>
  <path d="M448.2,468.4c0,0,0.4,1,1,2.4c0.6,1.4,1.4,3.2,2.3,4.9c0.2,0.4,0.5,0.8,0.7,1.2c0.3,0.4,0.5,0.8,0.8,1.2
    c0.5,0.7,1.1,1.4,1.6,1.9c1,1,2.1,1.3,2.1,1.3s-0.3,0-0.7,0c-0.5,0-1.1-0.2-1.8-0.6c-0.7-0.4-1.5-1-2.1-1.7
    c-0.7-0.7-1.3-1.6-1.8-2.5c-0.5-0.9-0.9-1.9-1.2-2.8c-0.3-0.9-0.5-1.8-0.6-2.6C448.2,469.4,448.2,468.4,448.2,468.4z"/>
  <path d="M453.4,472.6c0,0,0.8,1.1,1.9,2.8c0.6,0.8,1.2,1.8,1.9,2.8c0.4,0.5,0.8,1,1.2,1.4c0.4,0.5,0.9,0.9,1.4,1.3
    c1,0.9,2,1.5,3.1,2c0.6,0.2,1.1,0.4,1.6,0.5c0.5,0.1,1.1,0.2,1.6,0.3c1,0.1,1.8,0.2,2.4,0.3c0.6,0.1,0.9,0.1,0.9,0.1
    s-0.3,0.1-0.9,0.2c-0.6,0.1-1.4,0.3-2.5,0.3c-0.5,0-1.1,0-1.7-0.1c-0.6-0.1-1.3-0.2-1.9-0.4c-1.3-0.4-2.5-1.2-3.6-2.1
    c-0.5-0.5-1-1-1.5-1.5c-0.5-0.5-0.8-1.1-1.2-1.6c-0.7-1.1-1.2-2.2-1.6-3.2C453.7,473.9,453.4,472.6,453.4,472.6z"/>
  <path d="M519.9,449.7c0,0,0.2,1.1,0.4,2.7c0.2,1.6,0.3,3.8,0.3,6c0,1.1,0,2.2-0.1,3.2c-0.1,1-0.1,2-0.4,2.9
    c-0.2,0.8-0.6,1.5-1,1.9c-0.3,0.4-0.6,0.5-0.6,0.5s0.2-0.2,0.3-0.7c0.2-0.4,0.3-1.1,0.4-1.9c0-0.8,0-1.7-0.1-2.7
    c-0.1-1-0.1-2.1-0.1-3.2c0-2.2,0.2-4.4,0.4-6C519.6,450.8,519.9,449.7,519.9,449.7z"/>
  <path d="M522.8,448.4c0,0,0.1,0.4,0.3,1c0.1,0.7,0.4,1.6,0.5,2.8c0.2,1.2,0.3,2.5,0.3,4c0,1.5-0.1,3.1-0.3,4.6
    c-0.1,0.8-0.2,1.6-0.4,2.3c-0.1,0.8-0.3,1.5-0.5,2.2c-0.4,1.4-0.8,2.7-1.3,3.8c-0.4,1.1-0.9,2-1.2,2.6c-0.3,0.6-0.5,0.9-0.5,0.9
    s0.1-0.4,0.3-1c0.2-0.7,0.4-1.6,0.7-2.7c0.5-2.2,1.1-5.2,1.5-8.3c0.2-1.5,0.3-3,0.4-4.5c0.1-1.4,0.1-2.8,0.2-3.9
    c0-1.2,0.1-2.1,0-2.8C522.8,448.8,522.8,448.4,522.8,448.4z"/>
  <path d="M528.5,453c0,0-0.1,0.4-0.3,1.2c-0.2,0.8-0.5,1.9-0.8,3.2c-0.6,2.7-1.5,6.2-2,9.8c-0.3,1.8-0.4,3.6-0.4,5.3
    c0,1.7,0,3.3,0.1,4.6c0.1,1.3,0.3,2.5,0.4,3.3c0.1,0.8,0.2,1.2,0.2,1.2s-0.2-0.4-0.5-1.2c-0.3-0.8-0.7-1.8-1-3.2
    c-0.3-1.4-0.5-3-0.6-4.7c-0.1-1.7,0-3.6,0.3-5.5c0.5-3.7,1.6-7.2,2.6-9.8C527.7,454.7,528.5,453,528.5,453z"/>
  <path d="M518.4,470c0,0-0.2,0.2-0.4,0.7c-0.3,0.4-0.6,1-1.1,1.7c-0.2,0.4-0.5,0.7-0.8,1.1c-0.4,0.4-0.6,0.7-1.1,1.1
    c-0.8,0.8-1.8,1.4-2.9,1.9c-2.1,1-4.4,1.4-6,1.6c-1.7,0.2-2.8,0.1-2.8,0.1s1.1-0.4,2.6-1c0.8-0.3,1.7-0.6,2.7-0.9
    c1-0.4,2-0.7,2.9-1.2c1-0.4,1.9-1,2.7-1.5c0.4-0.3,0.8-0.6,1.1-0.9c0.3-0.3,0.7-0.6,1-0.9c0.6-0.6,1.1-1,1.5-1.4
    C518.1,470.1,518.4,470,518.4,470z"/>
  <path d="M503,451.4c0,0,0.5,0.4,1.4,1.2c0.9,0.8,2.2,1.9,3.3,3.6c0.6,0.8,1.1,1.9,1.5,3c0.4,1.2,0.5,2.5,0.3,3.8
    c-0.4,2.6-1.4,5.1-2.2,7.6c-0.9,2.5-1.8,5-2.6,7.4c-0.9,2.4-1.7,4.5-2.5,6.4c-0.7,1.9-1.4,3.4-1.8,4.5c-0.5,1.1-0.7,1.7-0.7,1.7
    s0.2-0.6,0.5-1.8c0.3-1.1,0.7-2.8,1.3-4.7c0.6-1.9,1.2-4.2,2-6.5c0.8-2.4,1.6-4.9,2.5-7.4c0.4-1.3,0.9-2.5,1.3-3.8
    c0.4-1.2,0.8-2.4,1-3.6c0.2-1.2,0.2-2.3,0-3.3c-0.2-1.1-0.7-2-1.2-2.9c-1-1.7-2.1-3-2.8-3.8C503.5,451.9,503,451.4,503,451.4z"/>
  <path d="M494.4,466.4c0,0,0.2,0.4,0.4,1.2c0.3,0.8,0.7,1.9,1.1,3.2c0.4,1.3,0.9,2.9,1.4,4.5c0.2,0.8,0.5,1.8,0.5,2.8
    c0,0.5-0.1,1.1-0.2,1.5c-0.2,0.5-0.4,1-0.6,1.5c-0.5,0.9-1.2,1.6-1.9,2.2c-0.7,0.6-1.4,1.2-2.1,1.7c-1.5,1-3,1.8-4.3,2.2
    c-1.3,0.5-2.5,0.7-3.3,0.9c-0.8,0.1-1.3,0.2-1.3,0.2s0.4-0.2,1.2-0.5c0.8-0.3,1.8-0.8,3-1.4c1.2-0.6,2.5-1.5,3.8-2.5
    c0.7-0.5,1.3-1.1,1.9-1.7c0.6-0.6,1.2-1.3,1.6-2c0.2-0.3,0.4-0.7,0.5-1.1c0.1-0.4,0.2-0.8,0.2-1.2c0-0.8-0.1-1.6-0.3-2.5
    c-0.4-1.7-0.7-3.3-0.9-4.6c-0.3-1.4-0.4-2.5-0.5-3.3C494.5,466.8,494.4,466.4,494.4,466.4z"/>
  <path d="M535.3,454.9c0,0,0.2,0.2,0.6,0.5c0.4,0.3,1,0.7,1.8,1.2c1.6,1,4,2.3,6.8,3.9c1.4,0.8,3,1.6,4.7,2.3
    c0.8,0.4,1.7,0.8,2.6,1.1c0.9,0.3,1.9,0.7,2.8,1c1,0.3,1.9,0.6,2.9,0.9c1,0.2,2,0.5,3.1,0.7c1,0.2,2.1,0.4,3.1,0.6
    c1.1,0.2,2.1,0.3,3.2,0.5c2.1,0.3,4.3,0.6,6.4,0.8c2.1,0.2,4.2,0.4,6.2,0.6c4.1,0.3,7.9,0.8,11.1,1.3c1.6,0.2,3.1,0.5,4.4,0.8
    c1.3,0.3,2.4,0.6,3.4,0.8c1.8,0.5,2.9,0.8,2.9,0.8s-1.1-0.2-2.9-0.5c-0.9-0.1-2.1-0.3-3.4-0.5c-1.3-0.1-2.8-0.3-4.4-0.5
    c-3.2-0.4-7-0.5-11.1-0.8c-4.1-0.3-8.4-0.6-12.8-1.2c-1.1-0.2-2.2-0.4-3.2-0.5c-1.1-0.2-2.1-0.4-3.2-0.7c-1-0.3-2.1-0.5-3.1-0.8
    c-1-0.3-2-0.6-3-1c-0.9-0.4-1.9-0.7-2.8-1.1c-0.9-0.4-1.8-0.8-2.6-1.2c-1.7-0.9-3.2-1.7-4.6-2.6c-2.8-1.7-5-3.3-6.6-4.4
    c-0.8-0.5-1.4-1-1.7-1.4C535.5,455.1,535.3,454.9,535.3,454.9z"/>
  <path d="M611.6,475.2c0,0-2.8,0.5-6.9,1.3c-2.1,0.4-4.5,0.9-7.1,1.4c-2.6,0.5-5.3,1.1-8.1,1.7c-2.7,0.6-5.5,1.3-8,1.9
    c-2.6,0.6-5,1.2-7,1.7c-4.1,1.1-6.8,1.8-6.8,1.8s0.7-0.3,1.8-0.8c1.2-0.4,2.8-1.1,4.8-1.8c2-0.7,4.4-1.5,6.9-2.2
    c2.5-0.7,5.3-1.4,8.1-2c2.8-0.6,5.5-1.1,8.2-1.5c2.6-0.4,5.1-0.7,7.2-0.9c2.1-0.2,3.9-0.3,5.1-0.4
    C610.9,475.2,611.6,475.2,611.6,475.2z"/>
  <path d="M596.8,475.6c0,0-0.7,0.1-1.9,0.4c-0.6,0.1-1.4,0.3-2.2,0.5c-0.8,0.2-1.8,0.4-2.8,0.7c-1,0.2-2.1,0.6-3.3,1
    c-1.2,0.3-2.3,0.9-3.6,1.3c-1.2,0.5-2.5,1-3.7,1.6c-1.3,0.5-2.5,1.2-3.8,1.9c-1.2,0.7-2.5,1.4-3.6,2.1c-1.2,0.7-2.3,1.5-3.4,2.3
    c-1,0.8-2.1,1.5-3,2.3c-0.9,0.8-1.8,1.5-2.6,2.2c-0.8,0.7-1.5,1.4-2.1,2c-0.6,0.6-1.2,1.1-1.6,1.6c-0.9,0.9-1.4,1.4-1.4,1.4
    s0.4-0.6,1.1-1.6c0.4-0.5,0.8-1.1,1.4-1.8c0.5-0.7,1.2-1.4,1.9-2.2c0.7-0.8,1.6-1.6,2.5-2.5c0.9-0.9,1.9-1.7,2.9-2.5
    c1.1-0.8,2.2-1.7,3.4-2.4c1.2-0.8,2.4-1.5,3.7-2.2c1.3-0.6,2.6-1.3,3.9-1.9c1.3-0.6,2.6-1.1,3.9-1.5c1.3-0.4,2.5-0.8,3.7-1.1
    c1.2-0.3,2.3-0.6,3.4-0.7c1.1-0.2,2-0.3,2.9-0.4c0.9-0.1,1.6-0.2,2.3-0.2C596.1,475.6,596.8,475.6,596.8,475.6z"/>
  <path d="M567.6,470.4c0,0-0.7,0-2,0.1c-1.3,0-3.1,0.2-5.3,0.2c-4.4,0.1-10.1,0.4-16-0.1c-1.5-0.1-2.9-0.3-4.4-0.6
    c-1.4-0.3-2.8-0.7-4.1-1.1c-2.6-0.8-5-1.9-6.9-2.9c-2-1-3.5-1.9-4.6-2.5c-1.1-0.6-1.7-1-1.7-1s2.7,1.1,6.7,2.8
    c2,0.8,4.4,1.7,7,2.4c1.3,0.4,2.6,0.7,4,0.9c1.4,0.2,2.8,0.4,4.2,0.5c2.9,0.3,5.7,0.3,8.5,0.4c2.7,0.1,5.3,0.2,7.4,0.3
    c2.2,0.1,4,0.2,5.3,0.3C566.8,470.3,567.6,470.4,567.6,470.4z"/>
  <path d="M498.8,408.1c0,0-1-0.2-2.8-0.5c-1.9-0.3-4.6-0.7-8.1-0.8c-3.5-0.1-7.8-0.2-12.6,0.7c-2.4,0.5-4.9,1.3-7.2,2.6
    c-2.4,1.3-4.5,3.3-6.3,5.6c-1.8,2.3-3.4,5-5,7.9c-1.6,2.8-3.1,5.8-4.4,9c-2.7,6.3-4.7,13.4-4.8,20.8c-0.1,7.4,2.1,15.2,6.9,21.3
    c1.2,1.5,2.5,2.9,4,4.2c1.5,1.3,3.2,2.3,4.9,3.1c3.5,1.7,7.4,2.5,11.4,2.5c7.9,0.1,15.7-2.4,22.5-6.2c3.4-1.9,6.2-4.6,8.3-7.8
    c2.1-3.2,3.5-6.7,4.6-10.3c1.1-3.6,1.8-7.2,2.4-10.8c0.6-3.5,0.8-7.1,0.2-10.4c-0.6-3.3-1.8-6.5-3.1-9.4c-1.4-2.9-2.8-5.7-4.2-8.4
    c-2.8-5.2-6.2-9.8-10.2-12.5c-2-1.4-4.2-2.2-6.2-2.5c-2.1-0.4-4-0.2-5.8,0c-3.5,0.6-6,1.6-7.8,2.3c-1.7,0.7-2.7,1.1-2.7,1.1
    s0.9-0.4,2.6-1.2c1.7-0.7,4.3-1.8,7.8-2.5c1.7-0.3,3.7-0.5,5.9-0.2c2.1,0.3,4.4,1.1,6.5,2.5c4.2,2.7,7.7,7.2,10.7,12.6
    c1.4,2.7,2.8,5.4,4.3,8.4c1.4,3,2.6,6.2,3.3,9.6c0.7,3.5,0.5,7.2,0,10.8c-0.6,3.6-1.3,7.3-2.4,10.9c-1.1,3.6-2.5,7.3-4.7,10.6
    c-2.2,3.3-5.2,6.2-8.7,8.2c-1.7,1-3.6,1.9-5.4,2.7c-1.9,0.8-3.8,1.5-5.7,2c-3.9,1.1-8,1.8-12.1,1.8c-4.1,0-8.3-0.9-12-2.7
    c-1.9-0.9-3.6-2-5.2-3.3c-1.6-1.3-3-2.8-4.2-4.4c-5-6.4-7.2-14.5-7.1-22.2c0.1-7.7,2.3-14.9,5.1-21.2c1.4-3.2,3-6.2,4.6-9
    c1.6-2.8,3.3-5.5,5.2-7.9c1.9-2.4,4.1-4.4,6.6-5.7c2.5-1.4,5-2.1,7.5-2.5c4.9-0.8,9.2-0.6,12.7-0.4c3.5,0.2,6.3,0.7,8.1,1
    C497.8,407.9,498.8,408.1,498.8,408.1z"/>
	<path d="M664.6,165.8c-13.5-0.7-27.1-1.4-40.7-1.9c-13.6-0.5-27.1-1-40.7-1.3c-27.1-0.7-54.3-1.1-81.4-1.3
		c-54.3-0.4-108.5,0-162.8,0.1l-325.6,1.1l0.2-0.2c-5.1,68.4-8.8,136.9-11,205.4c-1.1,34.3-1.8,68.6-2.2,102.9l-0.2,25.7
		c-0.1,8.6-0.1,17.1,0,25.7c0.2,17.1,1,34.3,3.9,51.2c1.4,8.4,3.4,16.8,6.1,24.9l2.1,6l2.4,5.9c1.7,3.9,3.6,7.8,6.4,10.9
		c2.8,3.1,6.7,5.2,10.8,6.3c4.1,1.2,8.4,1.6,12.6,2.1l25.6,2.6c4.3,0.4,8.5,0.9,12.8,1.3l12.8,1.1l25.6,2.1l25.7,1.6
		c4.3,0.3,8.6,0.6,12.8,0.8l12.8,0.6l25.7,1.2l25.7,0.8c8.6,0.3,17.1,0.5,25.7,0.6l25.7,0.4c17.1,0,34.3,0.3,51.4,0l25.7-0.2
		l25.7-0.5c8.6-0.1,17.1-0.4,25.7-0.6l25.7-0.7c17.1-0.6,34.3-1.1,51.4-1.9c34.3-1.3,68.5-3.1,102.8-4.8l51.4-2.7l12.8-0.7l6.4-0.3
		c2.1-0.1,4.3-0.2,6.4-0.5c2.1-0.3,4.2-0.8,6-1.7c1.8-1,3.3-2.5,4.3-4.3c2-3.7,2.4-8,3-12.3c5.2-33.9,7.6-68.1,8.6-102.4
		c1-34.3,0.5-68.6-0.1-102.9L681,303.4l-1.9-102.9c-0.1-4.3-0.1-8.6-0.8-12.7c-0.7-4.2-2.2-8.2-5.1-11.3c-2.8-3.1-6.6-5.1-10.7-6.3
		c-4.1-1.2-8.3-1.7-12.6-2c-4.3-0.2-8.6-0.2-12.8-0.4l-12.9-0.3l-25.7-0.5l-205.7-4.3L290,160.6c-34.3-0.7-68.6-1.5-102.9-1.7
		c-34.3-0.2-68.6,0.1-102.8,1.6L71.5,161l-12.8,0.7l-12.8,0.9c-4.3,0.3-8.5,0.6-12.7,1.4c-4.2,0.8-8.3,2-11.9,4.2
		c-3.6,2.1-6.5,5.4-8.3,9.1c-1.8,3.7-2.1,8.2-0.4,11.9c0.4,1,1,1.8,1.6,2.6c0.3,0.4,0.7,0.8,1,1.2l1.1,1.1c1.6,1.3,3.4,2.3,5.4,3.1
		c3.9,1.6,8.1,2.2,12.4,2.6c4.2,0.3,8.5,0.3,12.8,0.4l25.7,0.6l25.7,0.4c8.6,0.1,17.1,0.3,25.7,0.4c34.3,0.4,68.6,0.4,102.9,0.3
		c68.6-0.4,137.2-1.6,205.7-3.5c68.6-1.8,137.1-4.3,205.7-6.5c2.2,0.1,4.4,0.3,6.5,1.2c2.1,0.9,4,2.6,4.8,4.7c0.9,2.1,1,4.5,0.8,6.6
		c-0.2,2.2-0.5,4.3-0.8,6.4l-3.5,25.5c-2.2,17-4.2,34-5.8,51.1c-1.5,17.1-2.5,34.2-2.6,51.3c-0.1,8.6,0.1,17.1,0.5,25.7
		c0.4,8.6,1.1,17.1,1.9,25.6c3.3,34.1,9.2,68,10.5,102.4c0.3,8.6,0.5,17.1-0.1,25.8c-0.5,4.3-1.4,8.7-3.9,12.5
		c-1.2,1.9-2.9,3.5-4.9,4.5c-2,1.1-4.3,1.5-6.4,1.7c-4.4,0.3-8.6,0.3-12.9,0.5l-12.9,0.4l-25.7,0.8c-68.6,2.1-137.1,4.2-205.7,3.9
		c-68.6-0.2-137.2-3.4-205.6-7.8c-34.2-2.2-68.4-4.6-102.6-7.1L57.2,527c-2.1-0.2-4.3-0.3-6.5-0.8c-2.1-0.5-4.3-1.2-6.2-2.6
		c-0.5-0.3-0.9-0.7-1.3-1.1c-0.4-0.3-0.8-0.8-1.2-1.3c-0.7-0.9-1.3-1.9-1.7-2.9c-0.9-2.1-1.4-4.2-1.6-6.4c-0.5-4.4,0-8.7,0.1-13
		c0.9-17.1,1.6-34.2,2.2-51.4c2.4-68.5,2.6-137.1,0.7-205.7c-0.5-17.1-1.1-34.3-1.9-51.4l-0.6-12.8c-0.1-2.1-0.3-4.2-0.8-6.2
		c-0.5-2-1.4-3.9-2.9-5.3c-1.4-1.4-3.3-2.3-5.3-2.6c-2-0.3-4.1-0.1-6.1,0.4c-4,1.1-7.5,3.7-9.5,7.4c-2.1,3.6-3.2,7.7-3.7,11.9
		c-0.5,4.2-0.5,8.5-0.6,12.8L10,221.8l-1,51.4L4.9,479l-2,102.9c-0.2,8.6-0.4,17.2,1.4,25.5c0.9,4.1,2.3,8.2,4.7,11.6
		c1.1,1.8,2.6,3.3,4.1,4.7c0.8,0.6,1.6,1.3,2.5,1.9c0.9,0.6,1.8,1,2.8,1.5c3.8,1.8,8,2.6,12.2,3.3c4.2,0.6,8.5,1.2,12.7,1.8
		c8.5,1.2,17,2.2,25.5,3.3c68.1,7.9,136.7,10.5,205.3,11.9c34.3,0.7,68.6,1.3,102.9,1.8c34.3,0.5,68.6,0.6,102.9-0.1
		c34.3-0.7,68.5-2.2,102.7-5.1c8.5-0.8,17.1-1.5,25.6-2.5l12.8-1.4l12.8-1.6c4.2-0.6,8.5-1,12.7-1.8c4.2-0.8,8.3-2,11.8-4.3
		c3.6-2.3,6.2-5.6,8.1-9.4c1.8-3.8,2.9-7.9,3.6-12.1c0.6-4.2,0.9-8.5,1-12.7c0.1-4.3,0.1-8.5-0.6-12.7c-0.7-4.1-2.2-8.3-5.3-11.1
		c-1.5-1.4-3.4-2.4-5.4-2.9c-2-0.5-4.1-0.7-6.2-0.8l-51.4-0.2L499,569.9L293.3,569l-205.8-0.9L61.8,568c-8.5,0.1-17.2-0.6-25.4,1.8
		c-0.5,0.2-1,0.3-1.5,0.5l-1.5,0.6l-1.5,0.6c-0.5,0.2-0.9,0.5-1.4,0.8c-0.9,0.6-1.8,1-2.7,1.7l-2.5,2c-3.1,2.9-5.6,6.3-7.5,10.1
		c-2,3.8-3,7.9-3.6,12.1c-0.3,2.1-0.3,4.2-0.2,6.3l0.4,3.2c0.1,1.1,0.5,2.1,0.7,3.1c1.1,4.1,2.9,8,5.7,11.2c2.8,3.2,6.1,5.9,9.8,7.9
		c7.5,4.1,16,5.9,24.4,6.8c8.5,0.9,17.1,0.8,25.7,1l25.7,0.5l205.7,3.7l51.4,0.9l25.7,0.5l12.9,0.2l6.4,0.1c2.1,0,4.3,0.1,6.5,0.5
		c2.1,0.4,4.3,0.9,6.2,2c1.9,1,3.6,2.8,4.4,4.9c0.8,2.1,0.7,4.4,0.3,6.5c-0.4,2.1-1.1,4.2-1.6,6.3c-0.1,0.5-0.2,1-0.3,1.5
		c-0.1,0.5-0.2,1.1-0.2,1.6l0,1.5l0.1,1.6c0.3,2.1,1,4.1,1.9,6c1.9,3.8,4.8,7,7.9,9.9c6.3,5.7,13.6,10.3,21,14.6
		c7.4,4.3,15.1,8.1,22.5,12.4l1.1,0.6l-1.3,0.1c-10.8,0.6-21.5,1.2-32.3,1.7c-10.8,0.5-21.5,0.9-32.3,1.2
		c-10.8,0.3-21.5,0.6-32.3,0.8c-10.8,0.2-21.5,0.4-32.3,0.5c-10.8,0.1-21.5,0.2-32.3,0.2c-10.8,0-21.5,0-32.3-0.1
		c-10.8-0.1-21.5-0.2-32.3-0.5c-10.8-0.2-21.5-0.5-32.3-0.9l-0.3,0l0.1-0.3c0.3-1.5,0.8-3,1.4-4.4c0.7-1.4,1.5-2.7,2.5-3.9
		c1.9-2.4,4.2-4.5,6.6-6.4c4.9-3.7,10.3-6.6,15.9-9.1c5.6-2.5,11.3-4.5,17.2-6.2c5.9-1.7,12-2.5,18.1-2.8c6.1-0.3,12.2-0.1,18.3,0.1
		c6.1,0.3,12.2,0.5,18.3,0.6c12.2,0.1,24.3-0.4,36.5-0.8c12.2-0.4,24.3-0.9,36.5-0.9c12.2,0,24.4,0.3,36.5,1.6
		c12.1,1.2,24.2,3.4,35.8,7.3c5.8,2,11.4,4.4,16.7,7.4c1.4,0.7,2.6,1.5,3.9,2.3c1.3,0.8,2.6,1.6,3.8,2.6c1.2,1,2.2,2.2,2.9,3.6
		c0.7,1.4,0.9,3.1,0.2,4.6l0,0.1l-0.1,0c-5.5,0.6-10.9,1.2-16.4,1.8c-5.5,0.5-11,1-16.4,1.4c-5.5,0.4-11,0.8-16.5,1.1
		c-5.5,0.3-11,0.7-16.5,0.9c-5.5,0.2-11,0.5-16.5,0.7l-16.5,0.4l-16.5,0.2l-16.5,0l-16.5-0.2l-16.5-0.4l-16.5-0.6
		c-5.5-0.2-11-0.6-16.5-0.8c-5.5-0.3-11-0.7-16.5-1.1c-5.5-0.4-11-0.9-16.4-1.3c-5.5-0.5-10.9-1.1-16.4-1.6
		c-5.5-0.6-10.9-1.3-16.4-1.9l-0.1,0l0-0.1c0.4-2.9,1.8-5.5,3.8-7.6c1.9-2.1,4.3-3.8,6.7-5.2c4.9-2.9,10.2-5,15.5-7.1
		c5.3-2.1,10.6-4.1,15.7-6.7c2.5-1.3,5-2.7,7.2-4.5c2.2-1.8,4.2-3.9,5.2-6.6c1.1-2.6,0.9-5.6,0.5-8.4c-0.4-2.8-1.2-5.6-1.7-8.4
		c-0.3-1.4-0.5-2.8-0.5-4.2c-0.1-1.4,0.1-2.9,0.6-4.2c0.4-1.4,1.5-2.5,2.5-3.4c1.1-0.9,2.5-1.4,3.9-1.8c2.8-0.6,5.7-0.6,8.5-0.8
		l8.5-0.5l17.1-0.8c22.8-1,45.5-1.7,68.3-2c2.8,0,5.7-0.1,8.5,0c2.8,0.1,5.8,0.6,8.2,2.2c2.4,1.6,3.7,4.4,4.3,7.2
		c0.6,2.8,0.7,5.7,1,8.5l3.4,34l0,0l0,0l-22.7-19.8l22.7,19.8l0,0l-3.4-34c-0.3-2.8-0.5-5.7-1-8.5c-0.5-2.8-1.8-5.6-4.2-7.1
		c-2.4-1.6-5.3-2-8.1-2.2c-2.8-0.1-5.7,0-8.5,0c-22.8,0.3-45.6,1-68.3,2l-17.1,0.8l-8.5,0.5c-2.8,0.2-5.7,0.2-8.5,0.8
		c-1.4,0.3-2.7,0.9-3.8,1.7c-1,0.9-2,2-2.5,3.4c-0.5,1.3-0.7,2.7-0.6,4.2c0,1.4,0.2,2.8,0.5,4.2c0.5,2.8,1.3,5.5,1.7,8.4
		c0.4,2.8,0.7,5.8-0.5,8.5c-1.1,2.7-3.1,4.9-5.3,6.7c-2.2,1.8-4.7,3.2-7.2,4.5c-5.1,2.6-10.4,4.6-15.7,6.7
		c-5.3,2.1-10.6,4.2-15.5,7.1c-2.4,1.5-4.8,3.1-6.7,5.2c-1.9,2.1-3.3,4.7-3.7,7.5l-0.1-0.1c5.5,0.6,10.9,1.3,16.4,1.9
		c5.5,0.5,10.9,1.1,16.4,1.6c5.5,0.4,11,0.9,16.4,1.3c5.5,0.3,11,0.8,16.5,1c5.5,0.3,11,0.6,16.5,0.8l16.5,0.6l16.5,0.4l16.5,0.2
		l16.5,0l16.5-0.2l16.5-0.4c5.5-0.2,11-0.4,16.5-0.7c5.5-0.2,11-0.6,16.5-0.9c5.5-0.3,11-0.8,16.5-1.2c5.5-0.4,11-1,16.4-1.4
		c5.5-0.5,10.9-1.2,16.4-1.8l-0.2,0.1c0.7-1.3,0.5-2.9-0.2-4.2c-0.7-1.3-1.7-2.4-2.9-3.4c-1.1-1-2.4-1.8-3.7-2.6
		c-1.3-0.8-2.6-1.6-3.9-2.3c-5.3-3-10.9-5.4-16.7-7.3c-11.5-3.8-23.6-6-35.7-7.3c-12.1-1.2-24.3-1.6-36.5-1.5
		c-12.2,0.1-24.3,0.5-36.5,0.9c-12.2,0.4-24.3,0.9-36.5,0.8c-6.1,0-12.2-0.3-18.3-0.6c-6.1-0.2-12.2-0.4-18.2-0.1
		c-6.1,0.3-12.1,1.2-17.9,2.8c-5.9,1.6-11.6,3.7-17.1,6.1c-5.5,2.5-10.9,5.3-15.8,9c-2.4,1.8-4.6,3.9-6.5,6.3
		c-0.9,1.2-1.7,2.5-2.4,3.8c-0.6,1.4-1.1,2.8-1.4,4.3l-0.3-0.3c10.8,0.3,21.5,0.6,32.3,0.8c10.8,0.2,21.5,0.3,32.3,0.4
		c10.8,0.1,21.5,0.1,32.3,0.1c10.8,0,21.5-0.1,32.3-0.2c10.8-0.1,21.5-0.3,32.3-0.5c10.8-0.2,21.5-0.5,32.3-0.9
		c10.8-0.3,21.5-0.7,32.3-1.2c10.8-0.5,21.5-1,32.3-1.7l-0.2,0.7c-7.4-4.3-15.1-8.1-22.5-12.4c-7.4-4.3-14.8-8.9-21.2-14.7
		c-3.2-2.9-6.1-6.2-8.1-10.1c-1-1.9-1.7-4-2-6.2l-0.2-1.6c0-0.6,0-1.1,0-1.7c0-0.6,0.1-1.1,0.2-1.6c0.1-0.5,0.2-1.1,0.3-1.6
		c0.5-2.1,1.2-4.1,1.6-6.2c0.4-2.1,0.5-4.2-0.2-6.1c-0.7-1.9-2.2-3.5-4-4.5c-1.8-1-3.9-1.5-6-1.9c-2.1-0.3-4.2-0.4-6.4-0.5l-6.4-0.1
		l-12.9-0.2l-25.7-0.5l-51.4-0.9L106.4,639l-25.7-0.5c-8.6-0.2-17.2-0.1-25.7-1c-8.5-0.9-17.2-2.7-24.8-6.9
		c-3.8-2.1-7.3-4.8-10.1-8.1c-2.8-3.3-4.8-7.3-5.9-11.5c-0.2-1.1-0.6-2.1-0.7-3.2l-0.4-3.2c0-2.2-0.1-4.3,0.2-6.5
		c0.5-4.3,1.7-8.6,3.7-12.4c1.9-3.9,4.5-7.4,7.7-10.4l2.6-2c0.8-0.7,1.9-1.2,2.8-1.7c0.5-0.3,0.9-0.6,1.4-0.8l1.5-0.6l1.5-0.6
		c0.5-0.2,1.1-0.4,1.6-0.5c4.2-1.2,8.5-1.6,12.8-1.8c4.3-0.1,8.6,0,12.9,0l25.7,0.1l205.8,0.8l205.8,0.8l102.9,0.4l51.5,0.2
		c2.2,0.1,4.4,0.2,6.5,0.8c2.1,0.6,4.2,1.6,5.8,3.1c3.4,3,4.9,7.5,5.6,11.7c0.7,4.3,0.7,8.6,0.6,12.9c-0.1,4.3-0.4,8.6-1,12.9
		c-0.7,4.3-1.8,8.5-3.7,12.4c-1,1.9-2.1,3.8-3.6,5.5c-0.7,0.8-1.5,1.6-2.3,2.4c-0.8,0.7-1.7,1.4-2.6,2c-3.7,2.4-8,3.6-12.2,4.4
		c-4.3,0.8-8.5,1.3-12.8,1.8l-12.8,1.6l-12.8,1.4c-8.5,1-17.1,1.7-25.6,2.5c-34.2,2.9-68.5,4.4-102.8,5.1
		c-34.3,0.7-68.6,0.6-102.9,0.1c-34.3-0.5-68.6-1.1-102.9-1.8c-68.6-1.4-137.2-4-205.4-11.9c-8.5-1.1-17-2-25.5-3.3
		c-4.2-0.6-8.5-1.2-12.7-1.8c-4.2-0.7-8.5-1.5-12.5-3.4c-1-0.5-2-1-2.9-1.6c-0.9-0.6-1.8-1.3-2.7-2c-1.6-1.5-3.2-3.1-4.3-4.9
		c-2.5-3.6-4-7.8-4.9-12.1c-1.9-8.5-1.6-17.2-1.4-25.8l2-102.9l4-205.7l1-51.4l0.5-25.7c0.1-4.3,0.1-8.6,0.6-12.9
		c0.5-4.3,1.6-8.6,3.9-12.5c1.1-1.8,2.6-3.7,4.4-5c1.8-1.3,3.8-2.4,5.9-3c2.1-0.6,4.4-0.8,6.6-0.5c2.2,0.3,4.4,1.4,6,3
		c1.6,1.6,2.6,3.7,3.2,5.9c0.6,2.2,0.7,4.3,0.9,6.5l0.6,12.9c0.8,17.1,1.4,34.3,1.9,51.4c2,68.6,1.8,137.2-0.6,205.8
		c-0.6,17.1-1.3,34.3-2.2,51.4c-0.2,4.3-0.6,8.6-0.1,12.7c0.4,4.1,1.9,8.3,5.2,10.7c3.3,2.4,7.7,2.8,11.9,3.1l12.8,0.9
		c34.2,2.5,68.4,4.9,102.6,7.1c68.4,4.3,137,7.5,205.5,7.7c68.6,0.3,137.1-1.8,205.7-3.9l25.7-0.8l12.9-0.4
		c4.3-0.2,8.6-0.2,12.8-0.5c2.1-0.2,4.1-0.6,5.9-1.6c1.8-0.9,3.3-2.4,4.4-4.1c2.3-3.4,3.2-7.7,3.6-11.8c0.6-8.4,0.4-17.1,0.1-25.6
		c-1.3-34.2-7.1-68.1-10.5-102.3c-0.9-8.5-1.5-17.1-1.9-25.7c-0.4-8.6-0.6-17.2-0.5-25.8c0.1-17.2,1.1-34.3,2.6-51.4
		c1.5-17.1,3.5-34.1,5.8-51.1l3.5-25.5c0.3-2.1,0.6-4.3,0.8-6.3c0.1-2.1,0.1-4.2-0.7-6c-0.8-1.8-2.3-3.3-4.1-4c-1.9-0.8-4-1-6-1.1
		c-68.5,2.2-137.1,4.7-205.6,6.4c-68.6,1.8-137.2,3.1-205.8,3.4c-34.3,0.1-68.6,0.1-102.9-0.3c-8.6-0.1-17.1-0.2-25.7-0.4l-25.7-0.5
		l-25.7-0.6c-4.3-0.1-8.6-0.1-12.9-0.5c-4.3-0.4-8.6-1-12.7-2.7c-2-0.8-4-1.9-5.7-3.3l-1.2-1.1c-0.4-0.4-0.7-0.8-1.1-1.3
		c-0.7-0.9-1.3-1.9-1.7-2.9c-2-4.1-1.5-9,0.4-12.9c1.9-4,5-7.4,8.7-9.6c3.8-2.3,8-3.5,12.3-4.3c4.3-0.8,8.6-1.1,12.8-1.4l12.8-0.9
		l12.8-0.7l12.9-0.6c34.3-1.5,68.6-1.8,102.9-1.5c34.3,0.3,68.6,1.1,102.9,1.8l102.9,2.2l205.7,4.3l25.7,0.5l12.9,0.3
		c4.3,0.1,8.6,0.1,12.9,0.4c4.3,0.3,8.6,0.8,12.8,2c4.2,1.2,8.2,3.3,11.2,6.6c3,3.2,4.6,7.6,5.3,11.8c0.7,4.3,0.8,8.6,0.8,12.9
		l1.8,102.9l1.8,102.9c0.6,34.3,1,68.6,0.1,102.9c-1,34.3-3.4,68.6-8.6,102.5c-0.7,4.2-1,8.6-3.1,12.6c-1,2-2.7,3.7-4.6,4.7
		c-2,1.1-4.2,1.5-6.3,1.8c-2.2,0.3-4.3,0.3-6.4,0.5l-6.4,0.3l-12.8,0.7l-51.4,2.7c-34.3,1.7-68.5,3.4-102.8,4.8
		c-17.1,0.7-34.3,1.3-51.4,1.9l-25.7,0.7c-8.6,0.2-17.1,0.5-25.7,0.6l-25.7,0.4l-25.7,0.2c-17.1,0.2-34.3,0-51.4-0.1l-25.7-0.4
		c-8.6-0.1-17.1-0.3-25.7-0.6l-25.7-0.8l-25.7-1.2l-12.8-0.6c-4.3-0.2-8.6-0.5-12.8-0.8l-25.7-1.6l-25.6-2.1l-12.8-1.1
		c-4.3-0.4-8.5-0.9-12.8-1.3l-25.6-2.6c-4.3-0.5-8.6-0.9-12.7-2.1c-4.2-1.2-8.2-3.3-11.1-6.5c-2.9-3.3-4.9-7.2-6.5-11.1l-2.4-6
		l-2.1-6.1c-2.7-8.2-4.6-16.6-6.1-25c-2.9-17-3.7-34.2-3.8-51.3c-0.1-8.6,0-17.2,0-25.7l0.2-25.7c0.4-34.3,1.1-68.6,2.3-102.9
		c2.2-68.6,6-137.1,11.1-205.5l0-0.2l0.2,0l325.6-0.9c54.3-0.1,108.5-0.4,162.8,0c27.1,0.2,54.3,0.6,81.4,1.3
		c13.6,0.3,27.1,0.8,40.7,1.3C637.5,164.5,651.1,165.1,664.6,165.8z"/>
	<path d="M358.9,311.7c13.5-0.7,27.1-1.4,40.7-1.9c13.6-0.5,27.1-1,40.7-1.3c27.1-0.7,54.3-1.1,81.4-1.3c54.3-0.4,108.5-0.1,162.8,0
		l325.6,0.9l0.2,0l0,0.2c5.2,68.3,8.9,136.8,11.1,205.3c1.1,34.3,1.9,68.5,2.3,102.8l0.2,25.7c0.1,8.6,0.1,17.1,0,25.7
		c-0.2,17.1-0.9,34.3-3.8,51.3c-1.4,8.5-3.4,16.9-6,25l-2.1,6.1c-0.8,2-1.6,4-2.4,6c-1.7,3.9-3.6,7.9-6.4,11.2
		c-2.8,3.3-6.9,5.5-11,6.7c-4.2,1.2-8.5,1.7-12.7,2.2l-25.6,2.6l-12.8,1.3l-12.8,1.1l-25.6,2.1l-25.7,1.6c-4.3,0.3-8.5,0.6-12.8,0.8
		l-12.8,0.6l-25.7,1.2l-25.7,0.8c-4.3,0.1-8.6,0.3-12.8,0.4l-12.9,0.2l-25.7,0.4c-17.1,0-34.3,0.3-51.4,0.1l-25.7-0.2l-25.7-0.4
		c-8.6-0.1-17.1-0.4-25.7-0.6l-25.7-0.7c-17.1-0.6-34.3-1.1-51.4-1.8c-34.2-1.3-68.5-3-102.7-4.7l-51.3-2.7
		c-8.6-0.5-17.1-0.8-25.7-1.4c-2.1-0.2-4.3-0.6-6.4-1.5c-2-0.9-3.8-2.4-5-4.3c-1.2-1.9-1.9-4-2.4-6.1c-0.5-2.1-0.8-4.3-1.1-6.4
		c-5.3-33.9-7.7-68.2-8.7-102.4c-1-34.3-0.6-68.6,0-102.8l1.8-102.8l1.8-102.8c0.1-4.3,0.1-8.6,0.7-12.9c0.6-4.3,1.9-8.6,4.7-12.1
		c2.7-3.5,6.7-5.8,10.7-7.2c4.1-1.4,8.4-2,12.7-2.3c4.3-0.3,8.6-0.3,12.9-0.4l12.8-0.3l25.7-0.5l205.6-4.3l102.8-2.2
		c34.3-0.7,68.5-1.5,102.8-1.8c34.3-0.3,68.6,0,102.8,1.4l12.8,0.6l12.8,0.7l12.8,0.9c4.3,0.3,8.6,0.6,12.8,1.2
		c4.3,0.7,8.5,1.7,12.4,3.7c3.9,1.9,7.3,5.1,9.5,8.9c2.2,3.8,3.2,8.5,1.9,12.8c-0.1,0.5-0.4,1.1-0.6,1.6c-0.2,0.5-0.4,1-0.7,1.5
		c-0.3,0.5-0.6,1-0.9,1.4l-1.1,1.3c-1.5,1.6-3.4,2.9-5.4,3.8c-4,1.9-8.3,2.8-12.6,3.3c-4.3,0.5-8.6,0.5-12.9,0.6l-25.7,0.6
		c-8.6,0.2-17.1,0.3-25.7,0.5c-8.6,0.1-17.1,0.3-25.7,0.4c-34.3,0.4-68.5,0.5-102.8,0.4c-137.1-0.6-274.1-5.1-411.1-9.9
		c-2.1,0-4.2,0-6.2,0.5c-2,0.4-3.9,1.3-5.1,2.9c-1.3,1.5-1.8,3.5-1.9,5.6c-0.1,2.1,0.2,4.2,0.5,6.3l3.5,25.5c2.3,17,4.3,34,5.9,51.1
		c1.6,17.1,2.6,34.2,2.8,51.4c0.2,17.2-0.5,34.3-2.2,51.4c-3.2,34.1-9.1,68-10.6,102.2c-0.4,8.5-0.5,17.1-0.2,25.6
		c0.3,4.2,0.9,8.5,2.6,12.2c0.9,1.9,2.1,3.6,3.6,4.9c1.5,1.3,3.4,2.2,5.4,2.6c2,0.4,4.1,0.5,6.3,0.6l6.4,0.2l12.8,0.4l25.7,0.8
		c68.5,2.1,137,4.2,205.5,4c68.5-0.1,137-3.3,205.4-7.5c34.2-2.1,68.4-4.6,102.6-7l12.8-0.9c4.3-0.4,8.6-0.4,12.4-1.9
		c0.9-0.4,1.8-0.9,2.6-1.5c0.4-0.3,0.7-0.6,1.2-1c0.4-0.4,0.7-0.7,1-1.1c1.2-1.6,2-3.5,2.5-5.5c0.9-4.1,0.7-8.3,0.5-12.6
		c-0.9-17.1-1.7-34.2-2.2-51.4c-2.5-68.5-2.7-137.1-0.8-205.6c0.5-17.1,1.1-34.3,1.8-51.4l0.6-12.8c0.1-2.1,0.2-4.3,0.4-6.5
		c0.2-2.2,0.7-4.4,1.7-6.4c1-2,2.7-3.7,4.7-4.8c2-1.1,4.4-1.4,6.6-1.2c4.5,0.3,8.7,2.4,11.7,5.7c0.4,0.4,0.7,0.8,1.1,1.3
		c0.3,0.5,0.6,0.9,0.9,1.4c0.6,1,1.1,1.9,1.5,3c0.9,2,1.5,4.1,1.9,6.3c0.9,4.3,1,8.6,1.1,12.9l0.5,25.7l1,51.4l4,205.6l2,102.8
		c0.1,8.5,0.6,17.2-0.7,25.8c-0.7,4.3-1.7,8.5-3.6,12.5c-1.9,3.9-4.8,7.4-8.5,9.9c-3.7,2.4-7.9,3.7-12.2,4.6
		c-4.2,0.8-8.5,1.3-12.7,1.9l-12.7,1.8l-12.8,1.6c-68.1,8.2-136.7,10.8-205.2,12.3c-34.3,0.7-68.5,1.3-102.8,1.8
		c-34.3,0.5-68.5,0.6-102.8,0c-34.3-0.6-68.5-2.1-102.7-4.8c-17.1-1.4-34.1-3.1-51.1-5.3c-4.3-0.6-8.5-1.1-12.8-1.6
		c-4.2-0.6-8.5-1.4-12.6-3.1c-4-1.7-7.6-4.5-10.2-8.1c-2.5-3.6-4.1-7.7-5.1-11.9c-1-4.2-1.4-8.5-1.7-12.8c-0.2-4.3-0.3-8.6,0-12.9
		c0.3-4.3,1.1-8.7,3.3-12.5c1.1-1.9,2.6-3.6,4.5-4.8c1.8-1.3,4-1.9,6.2-2.3c2.2-0.3,4.3-0.4,6.5-0.4l6.4,0l12.9-0.1l25.7-0.1
		l102.8-0.4l205.6-0.8l205.6-0.8L957,713l12.9,0c4.3,0,8.6,0.1,12.9,0.8c2.1,0.4,4.2,0.8,6.3,1.6l3,1.2c1,0.5,1.9,1.1,2.8,1.6
		c3.7,2.4,6.8,5.5,9.2,9.1c4.7,7.3,7.1,16.1,6.2,24.7c-0.1,2.2-0.7,4.3-1.3,6.4l-1.2,3c-0.4,1-1,1.9-1.5,2.9c-0.3,0.5-0.5,1-0.8,1.4
		l-1,1.3c-0.6,0.8-1.3,1.8-2.1,2.5c-1.4,1.6-3.1,3-4.8,4.3c-7,5.2-15.6,7.7-24,8.9c-8.5,1.3-17.1,1.4-25.7,1.5l-25.7,0.5l-205.6,3.7
		l-102.8,1.8c-2.1,0.1-4.2,0.2-6.3,0.6c-2.1,0.4-4.1,1.1-5.8,2.3c-1.7,1.2-2.9,3-3.4,5c-0.4,2-0.1,4.1,0.3,6.2
		c0.5,2.1,1.2,4.1,1.6,6.3c0.4,2.1,0.5,4.4,0.2,6.5c-0.6,4.4-2.6,8.3-5.2,11.8c-2.6,3.5-5.6,6.5-8.9,9.3c-3.3,2.8-6.7,5.3-10.3,7.7
		c-7.1,4.8-14.6,9-22,13.3l-0.2-0.7c10.6,0.6,21.1,1.2,31.7,1.7c10.6,0.5,21.2,0.9,31.7,1.2c10.6,0.3,21.2,0.6,31.7,0.9
		c10.6,0.2,21.2,0.4,31.8,0.5c10.6,0.1,21.2,0.2,31.8,0.2c10.6,0,21.2,0,31.8-0.1c10.6-0.1,21.2-0.2,31.8-0.4
		c10.6-0.2,21.2-0.5,31.7-0.8l-0.3,0.3c-0.3-1.4-0.7-2.8-1.4-4.2c-0.7-1.3-1.5-2.5-2.5-3.7c-1.9-2.3-4.2-4.2-6.6-6
		c-4.8-3.5-10.2-6.2-15.6-8.6c-5.5-2.4-11.1-4.4-16.8-6.1c-2.9-0.9-5.7-1.6-8.7-2.2c-2.9-0.6-5.9-1-8.9-1.3
		c-11.9-1.1-23.9,0.1-35.9,0.3c-12,0.3-24-0.2-35.9-0.6c-12-0.4-23.9-1-35.9-1c-12-0.1-24,0.2-35.9,1.4c-6,0.6-11.9,1.5-17.7,2.7
		c-5.9,1.2-11.6,2.7-17.3,4.7c-5.6,2-11.1,4.4-16.3,7.4c-1.3,0.7-2.6,1.5-3.8,2.3c-1.3,0.8-2.5,1.6-3.6,2.6c-1.1,1-2.1,2.1-2.8,3.4
		c-0.7,1.3-0.8,2.8-0.2,4.1l-0.2-0.1l16.1,1.7c5.4,0.5,10.8,1,16.2,1.4c5.4,0.4,10.8,0.8,16.2,1.2c5.4,0.3,10.8,0.7,16.2,0.9
		c5.4,0.2,10.8,0.5,16.2,0.7l16.2,0.5l16.2,0.2l16.2,0l16.2-0.2l16.2-0.4l16.2-0.6c5.4-0.2,10.8-0.5,16.2-0.8
		c5.4-0.3,10.8-0.7,16.2-1.1c5.4-0.4,10.8-0.9,16.2-1.3c5.4-0.5,10.8-1.1,16.1-1.6l16.1-1.9l-0.1,0.1c-0.4-2.8-1.9-5.4-3.8-7.5
		c-2-2.1-4.4-3.7-6.9-5.1c-5-2.8-10.4-4.9-15.8-6.9c-5.4-2-10.8-4-16-6.4c-2.6-1.2-5.2-2.5-7.6-4.1c-2.4-1.6-4.6-3.5-6.1-6
		c-1.6-2.4-1.9-5.5-1.6-8.3c0.3-2.9,1-5.7,1.6-8.5c0.6-2.8,1.1-5.7,0.7-8.5c-0.2-1.4-0.9-2.7-1.8-3.8c-0.9-1.1-2.1-1.9-3.5-2.4
		c-2.7-1-5.6-1-8.5-1.2l-8.6-0.5l-17.2-0.8c-23-1-46-1.7-68.9-2.1c-2.9,0-5.7-0.1-8.6-0.1c-2.8,0.1-5.8,0.5-8.3,1.9
		c-1.2,0.7-2.3,1.8-3,3c-0.7,1.2-1.2,2.6-1.5,4c-0.6,2.8-0.8,5.7-1.1,8.5l-3.5,34.3l0,0l22.7-19.8l-22.7,19.8l0,0l0,0l3.4-34.3
		c0.3-2.9,0.5-5.7,1.1-8.6c0.3-1.4,0.8-2.8,1.5-4c0.7-1.2,1.8-2.3,3-3c2.5-1.5,5.5-1.9,8.3-2c2.9-0.1,5.7,0,8.6,0.1
		c23,0.3,46,1,68.9,2l17.2,0.8l8.6,0.5c2.9,0.2,5.8,0.2,8.5,1.2c1.4,0.5,2.6,1.3,3.5,2.4c0.9,1.1,1.6,2.5,1.8,3.9
		c0.5,2.9-0.1,5.8-0.7,8.6c-0.6,2.8-1.3,5.6-1.6,8.5c-0.3,2.8,0,5.8,1.6,8.2c1.5,2.4,3.7,4.3,6.1,6c2.4,1.6,4.9,2.9,7.5,4.1
		c5.2,2.4,10.6,4.3,16,6.3c5.4,2,10.8,4.1,15.8,6.9c2.5,1.4,4.9,3.1,6.9,5.1c2,2.1,3.5,4.7,3.9,7.6l0,0.1l-0.1,0l-16.1,1.9
		c-5.4,0.5-10.8,1.1-16.1,1.6c-5.4,0.4-10.8,0.9-16.2,1.3c-5.4,0.4-10.8,0.8-16.2,1.1c-5.4,0.3-10.8,0.6-16.2,0.8l-16.2,0.6
		l-16.2,0.4l-16.2,0.2l-16.2,0l-16.2-0.2l-16.2-0.4c-5.4-0.2-10.8-0.4-16.2-0.7c-5.4-0.2-10.8-0.6-16.2-0.9
		c-5.4-0.3-10.8-0.8-16.2-1.1c-5.4-0.4-10.8-1-16.2-1.4l-16.1-1.7l-0.1,0l0-0.1c-0.7-1.4-0.5-3.1,0.2-4.5c0.7-1.4,1.7-2.5,2.9-3.5
		c1.1-1,2.4-1.8,3.7-2.6c1.3-0.8,2.5-1.6,3.8-2.3c5.2-3,10.7-5.5,16.4-7.4c5.7-2,11.5-3.5,17.3-4.7c5.9-1.2,11.8-2.1,17.8-2.7
		c11.9-1.2,23.9-1.6,35.9-1.4c12,0.1,24,0.6,35.9,1c12,0.4,23.9,0.8,35.9,0.6c11.9-0.2,23.9-1.4,35.9-0.4c3,0.3,6,0.7,8.9,1.3
		c2.9,0.6,5.8,1.4,8.7,2.2c5.8,1.7,11.4,3.7,16.9,6.1c5.5,2.4,10.9,5.1,15.8,8.7c2.4,1.8,4.7,3.8,6.7,6.1c1,1.2,1.8,2.4,2.5,3.8
		c0.7,1.4,1.2,2.8,1.4,4.3l0.1,0.3l-0.3,0c-10.6,0.3-21.2,0.6-31.8,0.9c-10.6,0.2-21.2,0.4-31.8,0.5c-10.6,0.1-21.2,0.1-31.8,0.1
		c-10.6,0-21.2-0.1-31.8-0.2c-10.6-0.1-21.2-0.3-31.8-0.5c-10.6-0.2-21.2-0.5-31.8-0.8c-10.6-0.3-21.2-0.7-31.7-1.2
		c-10.6-0.5-21.2-1-31.7-1.7l-1.3-0.1l1.1-0.6c7.4-4.3,14.9-8.5,22-13.3c3.5-2.4,7-4.9,10.2-7.7c3.2-2.8,6.3-5.8,8.8-9.2
		c2.5-3.4,4.5-7.3,5-11.5c0.3-2.1,0.3-4.1-0.2-6.3c-0.4-2-1.1-4.1-1.6-6.2c-0.5-2.1-0.8-4.3-0.3-6.5c0.5-2.2,1.8-4.2,3.7-5.4
		c1.8-1.3,4-2,6.1-2.4c2.1-0.4,4.3-0.6,6.5-0.7l102.8-1.9l205.6-3.7l25.7-0.5c8.6-0.1,17.1-0.3,25.6-1.5c8.4-1.2,16.8-3.7,23.7-8.8
		c1.7-1.3,3.3-2.6,4.7-4.2c0.8-0.7,1.3-1.6,2-2.4l1-1.3c0.3-0.4,0.5-0.9,0.8-1.4c0.5-0.9,1.1-1.8,1.5-2.8l1.1-3
		c0.5-2,1.1-4.1,1.2-6.2c0.9-8.4-1.4-17.1-6-24.1c-2.4-3.5-5.4-6.5-9-8.8c-0.9-0.5-1.8-1.1-2.7-1.6l-3-1.2c-1.9-0.7-4-1.2-6.1-1.5
		c-4.2-0.7-8.5-0.8-12.7-0.8l-12.8,0.1l-25.7,0.1l-205.6,0.9l-205.6,0.9l-102.8,0.4l-25.7,0.1l-12.9,0.1l-6.4,0
		c-2.1,0-4.3,0.1-6.3,0.4c-4.2,0.5-7.9,2.9-10,6.6c-2.1,3.6-2.8,7.9-3.2,12.1c-0.3,4.2-0.1,8.5,0,12.8c0.2,4.3,0.7,8.5,1.6,12.6
		c0.9,4.1,2.5,8.1,4.9,11.6c2.4,3.4,5.8,6.1,9.7,7.7c3.9,1.6,8.1,2.4,12.3,3c4.2,0.6,8.5,1.1,12.7,1.6c17,2.2,34,3.8,51.1,5.3
		c34.1,2.7,68.4,4.3,102.6,4.8c34.3,0.6,68.5,0.4,102.8,0c34.3-0.5,68.5-1.1,102.8-1.8c68.5-1.5,137.1-4.2,205.1-12.3l12.7-1.6
		l12.7-1.8c4.2-0.6,8.5-1.1,12.7-1.9c4.2-0.8,8.2-2.1,11.7-4.4c3.4-2.3,6.2-5.7,8-9.4c1.8-3.8,2.9-7.9,3.5-12.1
		c1.3-8.4,0.8-17,0.7-25.6l-2-102.8l-4-205.6l-1-51.4l-0.5-25.7c-0.1-4.3-0.3-8.5-1.1-12.7c-0.8-4.1-2.3-8.1-5.1-11.3
		c-2.7-3-6.7-5-10.8-5.3c-2-0.1-4.1,0.2-5.9,1.1c-1.7,0.9-3.2,2.4-4.1,4.2c-1.8,3.7-1.8,8.1-2,12.3l-0.6,12.8
		c-0.7,17.1-1.4,34.2-1.8,51.4c-1.9,68.5-1.6,137,0.9,205.5c0.6,17.1,1.4,34.2,2.3,51.3c0.2,4.3,0.4,8.7-0.6,13
		c-0.5,2.2-1.4,4.3-2.7,6.1c-0.4,0.4-0.8,0.9-1.1,1.3c-0.4,0.3-0.8,0.8-1.3,1.1c-0.9,0.7-1.9,1.2-3,1.6c-4.2,1.7-8.6,1.6-12.9,2
		l-12.8,0.9c-34.2,2.5-68.4,4.9-102.6,7.1c-68.4,4.3-136.9,7.5-205.5,7.6c-68.6,0.2-137.1-1.9-205.6-4l-25.7-0.8l-12.8-0.4l-6.4-0.2
		c-2.1-0.1-4.3-0.1-6.5-0.6c-2.2-0.4-4.3-1.4-6.1-2.9c-1.7-1.5-3-3.4-4-5.4c-1.9-4-2.5-8.4-2.8-12.8c-0.3-8.6-0.2-17.2,0.2-25.8
		c1.5-34.3,7.4-68.2,10.6-102.3c1.7-17,2.4-34.2,2.2-51.3c-0.2-17.1-1.2-34.2-2.8-51.3c-1.6-17-3.6-34.1-5.9-51l-3.5-25.5
		c-0.3-2.1-0.6-4.3-0.5-6.5c0.1-2.2,0.7-4.6,2.2-6.4c1.5-1.8,3.7-2.9,5.9-3.3c2.2-0.5,4.4-0.5,6.6-0.5c137,4.8,274,9.3,411.1,10
		c34.3,0.1,68.5,0.1,102.8-0.4c8.6-0.1,17.1-0.2,25.7-0.4c8.6-0.2,17.1-0.2,25.7-0.5l25.7-0.6c4.3-0.1,8.6-0.1,12.8-0.6
		c4.2-0.5,8.4-1.3,12.2-3.1c1.9-0.9,3.6-2.1,5-3.6l1-1.2c0.3-0.4,0.5-0.8,0.8-1.3c0.3-0.4,0.5-0.9,0.7-1.4c0.3-0.5,0.4-0.9,0.5-1.4
		c1.2-3.9,0.3-8.3-1.8-11.9c-2.1-3.6-5.2-6.5-9-8.4c-3.7-1.9-7.9-3-12.1-3.6c-4.2-0.6-8.5-0.9-12.7-1.2l-12.8-0.9l-12.8-0.7
		l-12.8-0.6c-34.2-1.5-68.5-1.7-102.8-1.5c-34.3,0.3-68.5,1.1-102.8,1.8l-102.8,2.1l-205.6,4.3l-25.7,0.5l-12.8,0.3
		c-4.3,0.1-8.6,0.1-12.8,0.4c-4.2,0.3-8.5,0.9-12.5,2.3c-4,1.4-7.7,3.6-10.3,6.9c-2.6,3.2-3.9,7.4-4.5,11.6
		c-0.6,4.2-0.6,8.5-0.6,12.8l-1.9,102.8l-1.8,102.8c-0.6,34.3-1,68.5,0,102.8c1,34.2,3.4,68.5,8.7,102.3c0.6,4.2,1.1,8.6,3.3,12.1
		c1.1,1.7,2.7,3.1,4.6,4c1.9,0.8,4,1.2,6.1,1.5c8.5,0.6,17.1,1,25.6,1.4l51.3,2.7c34.2,1.7,68.4,3.4,102.7,4.8
		c17.1,0.7,34.2,1.3,51.4,1.9l25.7,0.7c8.6,0.2,17.1,0.5,25.7,0.6l25.7,0.5l25.7,0.2c17.1,0.2,34.3,0,51.4,0l25.7-0.4l12.8-0.2
		c4.3-0.1,8.6-0.3,12.8-0.4l25.7-0.8l25.7-1.2l12.8-0.6c4.3-0.2,8.5-0.5,12.8-0.8l25.6-1.6l25.6-2.1l12.8-1l12.8-1.3l25.6-2.6
		c4.2-0.5,8.5-0.9,12.6-2.1c4.1-1.2,7.9-3.3,10.6-6.5c2.8-3.2,4.7-7.1,6.3-11c0.8-2,1.6-3.9,2.4-5.9l2.1-6c2.7-8.1,4.6-16.5,6-24.9
		c2.8-16.9,3.6-34,3.8-51.1c0.1-8.6,0-17.1,0-25.7l-0.2-25.7c-0.3-34.3-1.1-68.5-2.2-102.8c-2.2-68.5-5.9-136.9-11-205.3l0.2,0.2
		l-325.6-1.1c-54.3-0.2-108.5-0.5-162.8-0.1c-27.1,0.2-54.3,0.6-81.4,1.3c-13.6,0.3-27.1,0.8-40.7,1.3
		C386,310.4,372.5,311,358.9,311.7z"/>
</svg>
