<?xml version="1.0" encoding="utf-8"?>
<svg version="1.1"  xmlns="http://www.w3.org/2000/svg" xmlns:xlink="http://www.w3.org/1999/xlink" x="0px" y="0px" viewBox="0 0 1024 362.5" style="enable-background:new 0 0 1024 362.5;" xml:space="preserve">
	<path d="M997.4,259.6c-26.6,13.8-66.9,22.7-91.8,1.5c-24.7-21.1-17.6-69.5-13.8-99.3c2.2-17.4-24.1-21.3-31-7.2
		c-4.4-9.1-17-14.7-26.2-5.3c-27,27.3-56.6,60.9-63.6,100c-4,22.4,3.6,49.9,31,49.5c25.1-0.4,44.3-21.9,58.7-48.6
		c4.8,17.4,13.7,32.6,29.3,42.2c37.2,23,87.4,14.5,124.1-4.5C1032.6,278.2,1016.1,250,997.4,259.6z M820.8,248
		c-0.9,1.3-12.3,17.4-15.9,16.7c-8.3-1.5,3.8-27,5.6-30.9c10.4-22.2,26.9-40.9,43.9-58.3C846.7,201.1,836.1,226.7,820.8,248z"/>
	<path d="M218.6,314c-11.7-30.5,3.5-70.4,15.3-99.1c6.7-16.3-17.9-27.2-28.2-15.1c-2-9.9-12.7-18.4-24-11.7
		c-31.9,18.7-64.9,41.9-83.6,74.7c-12.6,22.1-14.9,57.1,17.1,62.2c25.1,4,48.2-17.3,64-33.9c0.8-0.8,1.6-1.7,2.4-2.6
		c-0.2,11.9,1.3,23.5,5.4,34.2C194.6,342.1,226.2,333.7,218.6,314z M134.1,287.3c-2.5,1.6-13.6,5.9-12.8,7.1
		c-4.2-6.2,11.2-24.8,14.3-28.6c16-19.8,37.4-34.5,59.1-47.4C179,244.5,158.9,271.9,134.1,287.3z"/>
	<path d="M174.9,73.8c-43.4,65.8-86.7,131.7-130,197.5c9.5-38,22.7-75.1,39.2-111c8.7-19-19.4-35.6-28.2-16.5
		C26.1,208.7,6.6,275.9-1.7,346.9c-2,17.4,22.4,20.4,30.5,8.2C86.9,266.9,145,178.6,203.2,90.3C214.8,72.7,186.5,56.3,174.9,73.8z"
		/>
	<path d="M419.1,175c-0.2-21-18.1-33.7-38.1-30.6c-38.9,6-68.7,49.1-71.1,88.9c-12.6,6.6-25.2,12.9-37,19.3
		c22.1-77.3,47.7-154.5,79.2-227.4C360.5,6,332.4-10.7,324,8.6c-44.4,102.6-77.8,212.7-105.8,320.9c-5.3,20.4,26.2,29.1,31.5,8.7
		c5.3-20.6,10.9-41.3,16.6-62c4.4,6.4,12.7,10.2,21.4,5.5c9.2-5,18.6-10,27.8-15.2c5.3,12,14.5,22.5,26.8,27.4
		c25.5,10.1,49.8-7.8,67.9-23.8c15.8-14-7.4-37-23.1-23.1c-9.3,8.3-25.1,23.3-37.4,13.1c-2.9-2.4-4.8-5.8-5.9-9.7
		c18.5-11.1,36.4-23,52.9-36.9C408.3,203.7,419.3,191.3,419.1,175z M381.2,183.6c-0.8,1-2,1.7-2.8,2.6c-8.4,8.8-18.2,16.5-28.6,23.7
		c5.3-10.9,13.2-20.6,23.2-27.3C377.5,179.4,395.4,166.7,381.2,183.6z"/>
	<path d="M644.9,188.9c-10.8-6.7-24.7-5.6-37.6-3.5c12.8-43.5,27.3-86.5,43.7-129c7.6-19.6-24-28.1-31.5-8.7
		c-18.3,47.5-34.4,95.7-48.1,144.5c-16.2,3.8-32,8.9-47.5,15.1c0.7-8.5,0.1-16.7-1.9-25.5c-3.2-14.3-22.7-15.2-29.9-3.9
		c-8,12.5-16,24.9-24.1,37.3c5.2-15.8,11.3-31.3,17.5-46.9c7.8-19.5-23.8-28-31.5-8.7c-17.1,42.7-32.4,85.1-32.6,131.7
		c-0.1,16.9,21.8,21.3,30.5,8.2c11.2-16.9,22.4-33.9,33.5-51c-0.2,9.7,1.9,19.3,9.4,29.1c12.6,16.4,41,0.2,28.2-16.5
		c-5.5-7.2-6.2-14.7-5.3-22.5c3.3,2.2,7.7,2.9,12.8,0.9c10.2-4.1,20.5-7.8,31-11c-9.5,36.9-17.7,74.2-24.7,111.9
		c-3.8,20.6,27.7,29.4,31.5,8.7c8.1-44.1,18-87.7,29.7-130.8c9-2.1,17.4-3.1,20.8-1c1,0.6,1.8,0.9,2.4,0.9c-0.3,1.5-0.6,3.6-0.8,6.5
		c-0.5,6.3-4.9,13.7-7,19.6c-5.1,14.3-10.2,28.7-15.3,43c-7.1,19.9,24.5,28.4,31.5,8.7c7.9-22.2,16.1-44.2,23.7-66.5
		C658.3,214.7,660.1,198.2,644.9,188.9z"/>
	<path d="M672.4,146.5c0.7-1.7,0.6-1.6-0.2,0.4c0.3-1.5,1.6-3.2,2.3-4.5c0.7-1.3,1.6-3.2,2.8-4.2c-3.1,2.7,0.8-0.8,1.4-1.5
		c5.8-6.3,6.7-17,0-23.1c-6.3-5.8-16.9-6.7-23.1,0c-7.1,7.8-12.3,16.5-15.5,26.6c-2.6,8.1,3.1,18.2,11.4,20.1
		c9,2,17.3-2.7,20.1-11.4C671.8,148.1,672.1,147.3,672.4,146.5z"/>
	<path d="M762.4,235.1c1.2-12.9,2.5-25.9,3.6-38.8c1.3-15.8,1.2-31.4-14.4-39.7c-7.5-4-18.2-2.2-22.4,5.9l-13.9,26.9
		c1.7-5.9,3.4-11.7,5.4-17.6c6.7-20-24.8-28.5-31.5-8.7c-12.9,38.1-19.2,77.3-19.1,117.5c0,15.7,22.8,23,30.5,8.2l30.5-58.8
		c-1.4,10.3-2.5,18.8-2.6,20.9c-0.7,15.7,1.7,28.5,12.5,40.3c14.2,15.6,37.3-7.6,23.1-23.1C757,260.5,761.6,243.8,762.4,235.1z"/>
</svg>
