<svg version="1.1" xmlns="http://www.w3.org/2000/svg" xmlns:xlink="http://www.w3.org/1999/xlink" x="0px" y="0px" viewBox="0 0 96 96" xml:space="preserve">
  <path class="st0" d="M93.6,80L76.7,63.1c-2-2-4.6-2.9-7.1-2.7l-10-10c8.2-12.6,6.8-29.7-4.3-40.8C42.5-3.2,21.9-3.2,9.2,9.5 c-12.7,12.7-12.7,33.4,0,46.1c11.3,11.3,29,12.6,41.7,3.7l9.9,9.9c-0.1,2.6,0.8,5.2,2.7,7.1l16.9,16.9c3.7,3.7,9.6,3.7,13.2,0 C97.3,89.6,97.3,83.7,93.6,80z M18.5,46.3c-7.6-7.6-7.6-19.9,0-27.5c7.6-7.6,19.9-7.6,27.5,0c7.6,7.6,7.6,19.9,0,27.5 C38.4,53.9,26.1,53.9,18.5,46.3z"/>
</svg>
