<svg version="1.1" xmlns="http://www.w3.org/2000/svg" xmlns:xlink="http://www.w3.org/1999/xlink" x="0px" y="0px" viewBox="0 0 512 512" xml:space="preserve">
	<path d="M262.3,466.5h-12.7c-20.5,0-38.4-14.6-42.6-34.7c-0.9-4.1-3.4-6.9-7-8.1c-7.9-2.6-15.6-5.8-23-9.5 c-3.3-1.7-7.2-1.5-10.1,0.4c-18.2,11.9-41,8.9-55.2-5.3l-9-9c-14.5-14.5-16.9-37.5-5.6-54.7c2.1-3.2,2.2-7,0.5-10.4 c-3.8-7.6-7.1-15.5-9.8-23.5c-1.2-3.5-3.9-6.1-7.4-6.8c-20.3-4.2-34.9-22.2-34.9-42.7v-12.7c0-20.5,14.6-38.4,34.7-42.6 c3.4-0.7,6.2-3.3,7.4-6.8c2.7-8.1,6-16.1,9.9-23.7c1.7-3.3,1.6-7-0.3-10l-0.1-0.2c-11.2-17.2-8.9-40.2,5.6-54.7l9-9 c8.2-8.2,19.2-12.8,30.8-12.8c8.5,0,16.7,2.5,23.9,7.1c3.2,2.1,7,2.1,10.3,0.5c7.6-3.8,15.5-7.1,23.6-9.8c3.6-1.2,6.1-3.9,6.9-7.4 c4.2-20.3,22.2-34.9,42.7-34.9h12.7c20.5,0,38.4,14.6,42.6,34.7c0.8,4,3.4,6.7,6.9,7.9c7.9,2.7,15.7,5.9,23.1,9.6 c3.3,1.7,7.2,1.5,10.2-0.3c18.2-11.9,41-9,55.2,5.3l9,9c14.5,14.5,16.9,37.5,5.6,54.7l-0.6,0.9c-1.9,2.9-2,6.7-0.3,10.1 c3.7,7.4,6.8,15,9.4,22.6c1.2,3.6,4,6.1,7.4,6.9l1,0.2c20.1,4.2,34.7,22.2,34.7,42.7v12.7c0,20.5-14.6,38.4-34.7,42.6l-1.2,0.3 c-3.4,0.7-6.2,3.3-7.4,6.8c-2.6,7.6-5.7,15.2-9.3,22.4c-1.7,3.4-1.6,7.2,0.4,10.1l0.7,1.1c11.3,17.2,8.9,40.2-5.6,54.7l-9,9 c-8.2,8.2-19.2,12.8-30.8,12.8l0,0c-8.5,0-16.7-2.5-23.9-7.1l-1-0.6c-2.8-1.9-6.8-2-10.1-0.3c-7.3,3.7-14.9,6.8-22.6,9.4 c-3.6,1.2-6.1,4-6.8,7.4l-0.2,1C300.8,451.9,282.9,466.5,262.3,466.5z M172.1,379.4c6.8,0,13.7,1.6,19.9,4.7c6,3,12.3,5.6,18.6,7.7 c14.9,4.9,26.1,17.4,29.2,32.5c1.1,5.2,5.1,8.5,9.8,8.5h12.7c4.7,0,8.7-3.3,9.7-7.9l0.2-1c3.1-15.1,14.3-27.5,29-32.5 c6.2-2.1,12.3-4.7,18.2-7.6c13.9-6.9,31-6.1,43.7,2.3l1,0.6c3.8,2.5,9.1,1.9,12.4-1.3l9-9c3.3-3.3,3.8-8.5,1.3-12.4l-0.7-1.1 c-8.4-12.9-9.3-29.6-2.3-43.7c2.9-5.9,5.5-11.9,7.5-18.1c5-14.8,17.4-25.9,32.5-29.1l1.2-0.3c4.6-1,7.9-5,7.9-9.7v-12.7 c0-4.7-3.3-8.7-7.9-9.7l-1-0.2c-15.1-3.2-27.6-14.3-32.5-29.2c-2.1-6.2-4.6-12.4-7.6-18.3c-7-14-6.1-30.7,2.3-43.6l0.6-0.9 c2.5-3.8,2-9-1.3-12.3l-9-9c-3.2-3.2-8.6-3.8-12.4-1.3c-13.8,9.1-30.5,9.6-44.4,2.6c-6-3-12.3-5.7-18.7-7.8 c-14.8-5-25.9-17.4-29-32.4c-1.1-5.1-5.1-8.4-9.8-8.4h-12.7c-4.7,0-8.7,3.3-9.7,7.9c-3.2,15.3-14.4,27.7-29.3,32.7 c-6.5,2.2-12.9,4.8-19,7.9c-13.8,7-30.9,6.1-43.7-2.3c-4.2-2.8-9.3-2-12.5,1.2l-9,9c-3.2,3.3-3.8,8.4-1.4,12.2l0.1,0.2 c8.5,12.9,9.3,29.7,2.3,43.7c-3.1,6.2-5.8,12.6-8,19.2c-4.9,14.9-17.4,26-32.5,29.2c-4.5,0.9-7.9,5-7.9,9.7v12.7 c0,4.7,3.3,8.7,7.9,9.7c15.2,3.2,27.7,14.3,32.6,29.1c2.2,6.5,4.8,12.9,7.9,19c7.1,14.1,6.3,30.9-2.2,43.8 c-2.7,4.1-2.2,9.3,1.1,12.6l9,9c3.2,3.2,8.6,3.8,12.4,1.3C155.4,381.8,163.6,379.4,172.1,379.4z"/>
	<path d="M255.5,331.8c-41.9,0-76-34.1-76-76c0-41.9,34.1-76,76-76c41.9,0,76,34.1,76,76 C331.5,297.7,297.4,331.8,255.5,331.8z M255.5,213.4c-23.3,0-42.3,19-42.3,42.3s19,42.3,42.3,42.3s42.3-19,42.3-42.3 S278.9,213.4,255.5,213.4z"/>
</svg>
